<?xml version="1.0" encoding="UTF-8" standalone="no"?>
<!-- Created with Inkscape (http://www.inkscape.org/) -->

<svg
   xmlns:dc="http://purl.org/dc/elements/1.1/"
   xmlns:cc="http://creativecommons.org/ns#"
   xmlns:rdf="http://www.w3.org/1999/02/22-rdf-syntax-ns#"
   xmlns:svg="http://www.w3.org/2000/svg"
   xmlns="http://www.w3.org/2000/svg"
   xmlns:sodipodi="http://sodipodi.sourceforge.net/DTD/sodipodi-0.dtd"
   xmlns:inkscape="http://www.inkscape.org/namespaces/inkscape"
   width="210mm"
   height="297mm"
   viewBox="0 0 744.09448819 1052.3622047"
   id="svg4179"
   version="1.1"
   inkscape:version="0.91 r13725"
   sodipodi:docname="HUMAN HEART.svg">
  <defs
     id="defs4181" />
  <sodipodi:namedview
     id="base"
     pagecolor="#ffffff"
     bordercolor="#666666"
     borderopacity="1.0"
     inkscape:pageopacity="0.0"
     inkscape:pageshadow="2"
     inkscape:zoom="0.35"
     inkscape:cx="-87.857143"
     inkscape:cy="520"
     inkscape:document-units="px"
     inkscape:current-layer="layer1"
     showgrid="false"
     inkscape:window-width="1366"
     inkscape:window-height="706"
     inkscape:window-x="-8"
     inkscape:window-y="1102"
     inkscape:window-maximized="1" />
  <metadata
     id="metadata4184">
    <rdf:RDF>
      <cc:Work
         rdf:about="">
        <dc:format>image/svg+xml</dc:format>
        <dc:type
           rdf:resource="http://purl.org/dc/dcmitype/StillImage" />
        <dc:title></dc:title>
      </cc:Work>
    </rdf:RDF>
  </metadata>
  <g
     inkscape:label="Layer 1"
     inkscape:groupmode="layer"
     id="layer1">
    <path
       style="display:inline;opacity:1;fill:#0293e1;fill-opacity:1;fill-rule:evenodd;stroke:#000000;stroke-width:3.38401103;stroke-linecap:round;stroke-miterlimit:4;stroke-dasharray:none;stroke-opacity:1"
       d="m 259.83031,750.95413 c -3.39591,-0.7535 -7.03392,-5.76664 -7.72697,-10.64768 -1.03671,-7.3014 -3.16933,-58.38315 -3.12495,-81.49781 0.0339,-17.65128 0.37943,-22.93649 1.84517,-28.22368 4.81559,-17.37074 13.74378,-24.3664 27.21576,-21.32485 9.61212,2.17011 25.07338,11.68136 38.93428,23.95105 l 4.3973,3.8925 -1.16518,18.68117 c -2.47032,39.60642 -6.60726,64.70222 -9.78247,78.83835 -1.26121,5.61495 -2.18102,7.36074 -5.41986,10.28684 -2.14547,1.9383 -5.63766,4.04837 -7.76042,4.68905 -3.94041,1.18929 -33.3579,2.25476 -37.41266,1.35506 z"
       id="path5870"
       inkscape:connector-curvature="0"
       sodipodi:nodetypes="sssssscsssss" />
    <path
       style="display:inline;opacity:1;fill:#0293e1;fill-opacity:1;fill-rule:evenodd;stroke:#000000;stroke-width:3.31456304;stroke-linecap:round;stroke-miterlimit:4;stroke-dasharray:none;stroke-opacity:1"
       d="m 423.91059,421.18836 c -25.15532,-16.1976 -41.36233,-27.7529 -71.23415,-50.789 l -38.66989,-29.8208 -10.4961,0.016 c -23.1896,0.035 -51.3859,1.8921 -58.2493,3.8369 l -6.8735,1.9476 -4.3625,-3.0232 c -6.5817,-4.5611 -10.3534,-10.7024 -10.9436,-17.8187 -0.2745,-3.3106 -0.065,-6.0225 0.4663,-6.0266 3.8324,-0.029 26.4413,-4.5867 27.3725,-5.5179 1.9723,-1.9723 -0.6605,-4.6629 -9.3869,-9.5929 -10.6234,-6.0016 -10.9434,-6.3287 -10.9434,-11.1829 0,-5.507 3.0635,-10.9056 8.3555,-14.72439 l 4.3503,-3.1392 34.2505,11.08199 c 77.66528,25.1293 104.74463,32.2719 140.31649,37.0104 17.38513,2.3158 48.71912,2.6201 63.52913,0.6169 25.67247,-3.4725 40.63216,-10.16003 63.9898,-21.76733 16.92079,-8.4086 18.30413,-8.4823 24.34951,-1.2978 2.49786,2.9686 2.98357,4.5986 2.98357,10.0128 l 0,6.4669 -8.56262,4.66 c -8.62437,4.69361 -13.53447,8.3475 -13.53447,10.0719 0,0.5135 5.22044,3.3775 11.60097,6.3645 10.7212,5.0189 11.59913,5.6667 11.57671,8.5412 -0.0581,7.4472 -11.94876,21.84772 -21.15861,26.55242 -3.50427,1.7901 -0.87894,-35.16229 -9.72271,-30.75662 -20.91547,10.41936 -64.16083,11.09323 -78.05216,39.97443 -5.92342,12.3153 -8.15818,24.1019 -8.25265,43.5261 -0.0421,8.6584 -0.0896,15.7433 -0.10551,15.7441 -0.0159,9e-4 -14.68287,-9.4341 -32.59321,-20.9666 z"
       id="path4658"
       inkscape:connector-curvature="0"
       sodipodi:nodetypes="csccscsccsssscsssssscsscsssssccc" />
    <path
       inkscape:connector-curvature="0"
       id="path5846"
       d="m 248.0275,412.49913 c 1.6877,-37.5758 3.02105,-40.52747 5.86595,-69.22707 l 2.3,-23.2019 5.7046,-5.8564 c 14.1542,-14.5307 30.4341,-16.8517 54.1699,-7.7229 l 8.6905,3.3424 -1.59315,59.93504 z"
       style="display:inline;opacity:1;fill:none;fill-opacity:1;fill-rule:evenodd;stroke:#000000;stroke-width:3.31500006;stroke-linecap:round;stroke-miterlimit:4;stroke-dasharray:none;stroke-opacity:1"
       sodipodi:nodetypes="cscssccc" />
    <path
       style="display:inline;opacity:1;fill:#0293e1;fill-opacity:1;fill-rule:evenodd;stroke:#000000;stroke-width:3.38401103;stroke-linecap:round;stroke-miterlimit:4;stroke-dasharray:none;stroke-opacity:1"
       d="m 250.45192,405.52189 c 0,-5.52998 2.16607,-30.23865 5.01461,-57.20249 l 2.86732,-27.14145 5.40294,-5.48708 c 3.13176,-3.18052 8.15558,-6.84563 11.95121,-8.71896 6.02032,-2.97132 7.32338,-3.22716 16.16244,-3.17326 8.2342,0.0502 11.06411,0.55769 19.71571,3.53553 l 10.10152,3.47691 0.3412,5.55584 c 0.18766,3.05571 0.0258,16.03893 -0.35962,28.8516 l -0.70082,23.29575 -34.49064,19.56406 c -18.96985,10.76023 -34.83157,19.73678 -35.24826,19.94788 -0.41669,0.21111 -0.75761,-0.91584 -0.75761,-2.50433 z"
       id="path5872"
       inkscape:connector-curvature="0" />
    <path
       style="display:inline;fill:none;fill-opacity:1;fill-rule:evenodd;stroke:#000000;stroke-width:3.3499999;stroke-linecap:butt;stroke-linejoin:miter;stroke-miterlimit:4;stroke-dasharray:none;stroke-opacity:1"
       d="m 263.45325,384.36976 c 17.6373,-5.9659 29.6189,-16.9591 37.8906,-31.25 5.8587,-11.2773 15.1164,-16.4363 26.1719,-18.3594 l 27.73435,-3.5156 c 13.30279,0.4667 17.68222,7.1798 20.70312,14.8438 l 16.40625,38.2812 c 20.25564,33.8072 43.48287,42.8512 66.79688,51.1719 104.66501,130.9752 67.87007,196.7461 43.75,268.3594 -13.21769,19.7765 13.77844,9.3927 -51.17188,67.9687 -61.62852,-8.0372 -119.14892,-28.6727 -165.23442,-84.375 -32.423,-47.8857 -74.4216,-53.639 -94.1406,-157.4219 -4.132,-70.0989 21.9221,-116.8437 71.0938,-145.7031 z"
       id="path4621"
       inkscape:connector-curvature="0"
       sodipodi:nodetypes="cccccccccccc" />
    <path
       style="display:inline;opacity:1;fill:#dd1b02;fill-opacity:1;fill-rule:evenodd;stroke:#000000;stroke-width:3.38401103;stroke-linecap:round;stroke-miterlimit:4;stroke-dasharray:none;stroke-opacity:1"
       d="m 446.92659,769.2008 c -10.02377,-1.39556 -35.85524,-6.98503 -46.32381,-10.02363 -47.29553,-13.72799 -87.97549,-41.0231 -115.63457,-77.58756 -4.22455,-5.58473 -14.96901,-17.67125 -23.87657,-26.85893 -27.53768,-28.40366 -34.8614,-37.76489 -44.8045,-57.26941 -11.11917,-21.81151 -20.99773,-55.38753 -22.07294,-75.02322 -1.80265,-32.92069 7.11923,-68.24428 23.49654,-93.0277 12.00778,-18.17109 35.66997,-38.70632 52.20709,-45.3079 7.21723,-2.88111 18.15417,-10.46941 23.29898,-16.16539 2.13071,-2.35897 6.27841,-7.99511 9.2171,-12.52476 9.8192,-15.13509 14.02095,-17.24767 40.60589,-20.41605 14.61737,-1.74208 15.4663,-1.74348 19.94587,-0.0327 2.69622,1.02969 5.68352,3.13968 7.05011,4.97962 1.30428,1.75605 6.50899,12.83766 11.56602,24.6258 10.10555,23.55638 11.27324,25.68236 20.20266,36.78227 6.32554,7.86311 13.24245,14.22928 21.73664,20.00593 5.7477,3.90885 23.48343,12.41188 29.8224,14.29774 4.03933,1.20171 5.33367,2.54846 15.15229,15.76578 46.03026,61.96358 63.98974,113.81085 57.21093,165.16236 -1.61014,12.1973 -5.11553,27.74351 -9.11901,40.4423 -5.13957,16.30237 -14.96575,43.89103 -17.23489,48.38982 -1.29973,2.57685 -2.82593,7.55879 -3.39156,11.07096 -0.73011,4.5336 -2.11145,8.00906 -4.76243,11.98233 -3.58978,5.38034 -39.19215,41.61613 -40.58357,41.30562 -0.37302,-0.0832 -2.04192,-0.34122 -3.70867,-0.57327 z"
       id="path5888"
       inkscape:connector-curvature="0" />
    <path
       style="display:inline;opacity:1;fill:#dd1b02;fill-opacity:1;fill-rule:evenodd;stroke:#000000;stroke-width:3.38401103;stroke-linecap:round;stroke-miterlimit:4;stroke-dasharray:none;stroke-opacity:1"
       d="m 451.21294,325.25333 c -19.20027,-53.60344 -46.05171,81.13862 -46.05171,81.13862 -5.53951,0.79135 -35.5318,-73.3144 -46.47174,-72.33707 -5.48935,0.4904 -24.95943,1.26694 -25.04173,1.17218 -0.0823,-0.0947 0.44427,-11.12642 2.18083,-16.33964 5.86243,-17.59925 8.7615,-28.43191 27.18689,-48.55706 3.42813,-3.5872 5.10435,-7.11584 5.10435,-10.74525 0,-2.9448 -4.70024,-11.76522 -12.26622,-23.01865 -3.25409,-4.84005 -5.91653,-9.4645 -5.91653,-10.27656 0,-2.3425 5.15009,-7.83699 8.75923,-9.34499 1.81374,-0.75783 4.88962,-1.37787 6.8353,-1.37787 3.53038,0 3.54237,0.0157 5.88843,7.73058 2.62352,8.62724 4.36066,10.08373 9.46636,7.93694 2.34954,-0.98791 3.8579,-2.9716 6.43319,-8.46046 3.02237,-6.44175 3.80638,-7.33892 7.7192,-8.83323 4.01706,-1.53413 4.54889,-1.53631 6.85072,-0.0281 2.57976,1.69032 5.05719,8.19981 3.86134,10.14576 -0.37347,0.60772 -3.53841,4.8119 -7.0332,9.34261 -5.65578,7.33226 -6.35416,8.74164 -6.35416,12.82311 0,3.39985 0.63309,5.31828 2.44857,7.41971 2.41859,2.79956 2.5761,2.83127 12.8679,2.59126 9.4571,-0.22056 10.58643,-0.45378 12.22881,-2.52539 3.83139,-4.83272 7.34707,-11.60555 10.8504,-20.90295 4.21186,-11.17774 6.07456,-12.73193 15.1424,-12.63442 5.71918,0.0615 9.54332,1.58285 14.31629,5.69544 l 2.69954,2.32604 -1.9731,13.13198 c -1.83587,12.2186 -1.8605,13.42854 -0.35437,17.39571 2.39762,6.31539 6.59923,10.38431 10.7182,10.37971 5.50574,-0.006 9.39644,-3.29706 16.70519,-14.12997 l 6.88065,-10.19839 5.80269,0.45301 c 6.97456,0.5445 11.8076,3.141 13.48127,7.2427 1.16313,2.85052 0.82551,3.75874 -5.81019,15.62944 -3.8748,6.93169 -7.54657,14.47805 -8.1595,16.7697 2.22653,19.73746 21.29483,17.08069 24.17729,29.52352 -14.22479,6.76192 -49.72376,16.79272 -73.17259,10.86198 z"
       id="path5890"
       inkscape:connector-curvature="0"
       sodipodi:nodetypes="ccscacssssssssssssssssssscsscscsssccc" />
    <path
       sodipodi:nodetypes="ssccccsss"
       inkscape:connector-curvature="0"
       id="path5901"
       d="m 477.46802,394.10775 c -2.09208,-0.51929 -5.5021,-1.8106 -7.57784,-2.86956 l -3.77407,-1.92539 -3.95526,-23.08841 64.56779,-17.64357 0,22.61744 -3.87032,3.14145 c -9.4652,7.68268 -21.80846,15.91094 -26.60143,17.73305 -6.50868,2.47437 -13.82593,3.26688 -18.78887,2.03499 z"
       style="display:inline;opacity:1;fill:#dd1b02;fill-opacity:1;fill-rule:evenodd;stroke:#000000;stroke-width:3.38401103;stroke-linecap:round;stroke-miterlimit:4;stroke-dasharray:none;stroke-opacity:1" />
    <path
       style="display:inline;fill:#fc5f54;fill-opacity:1;fill-rule:evenodd;stroke:#000000;stroke-width:1px;stroke-linecap:butt;stroke-linejoin:miter;stroke-opacity:1"
       d="m 421.30067,498.88867 c 13.74865,13.06005 29.97082,17.87505 32.85714,67.14286 1.80113,19.1718 -3.24012,36.06282 -12.85714,51.42857 17.26946,36.86643 22.25061,80.75475 12.85714,132.85714 -32.6523,-28.96316 -55.41064,-65.34678 -72.85714,-105.71429 -2.46965,-21.47292 -1.54877,-41.25057 18.57143,-51.42857 -25.5109,-7.24455 -21.42071,-29.28964 -25.71429,-47.14285 8.55308,-30.0367 27.34583,-39.59405 47.14286,-47.14286 z"
       id="path5918"
       inkscape:connector-curvature="0"
       sodipodi:nodetypes="cccccccc" />
    <path
       style="display:inline;fill:#fc5f54;fill-opacity:1;fill-rule:evenodd;stroke:#000000;stroke-width:1px;stroke-linecap:butt;stroke-linejoin:miter;stroke-opacity:1"
       d="m 264.15781,403.17438 c -61.45012,32.47188 -57.3199,78.05983 -64.28571,121.42857 44.28254,-46.50106 71.28423,-55.56028 92.85714,-52.85714 39.34761,-26.20816 49.08435,-43.95607 62.85715,-62.85714 -19.03212,-12.77663 -2.81123,-59.04363 -91.42858,-5.71429 z"
       id="path5920"
       inkscape:connector-curvature="0"
       sodipodi:nodetypes="ccccc" />
    <path
       style="display:inline;fill:#c97901;fill-opacity:1;fill-rule:evenodd;stroke:#000000;stroke-width:3.3499999;stroke-linecap:butt;stroke-linejoin:miter;stroke-miterlimit:4;stroke-dasharray:none;stroke-opacity:1"
       d="m 380.22924,362.4601 c 6.80339,11.7376 15.51572,22.62991 12.14286,37.14285 -2.60865,19.96115 -14.35782,29.8915 -24.64286,41.42858 -10.94785,5.35714 -19.3657,10.71428 -27.5,16.07142 -9.12161,3.15641 -17.90047,7.68383 -26.07143,14.64286 l -22.85714,6.07143 -19.28571,9.28571 -16.07143,7.5 6.42857,2.85715 19.64286,-12.14286 1.07143,4.64286 15,-9.28572 8.92857,-2.85714 -32.14286,37.5 c -5.13526,4.7619 -10.23073,9.52381 -10.71429,14.28571 -7.31775,1.84379 -10.58067,10.60597 -15.35714,16.78572 l -21.78571,18.92857 c 5.6354,-2.40821 12.94707,-7.61021 13.21428,-1.07143 l -2.5,7.5 -2.85714,11.78572 0,5 -3.21429,12.5 4.28572,-5 2.14286,-6.42858 c -0.51914,-4.60297 4.09747,-2.88686 8.21428,-1.78571 l -3.57143,-7.85714 4.64286,-20.71429 c 5.20347,-11.41554 10.76629,-20.49527 17.85714,-19.64286 3.06729,8.943 2.10521,19.97181 -2.5,28.92858 -12.37563,27.49392 -13.25782,41.85248 -19.64285,62.5 -5.06454,11.0362 0.61492,12.52218 3.57142,16.42857 0.42501,2.89163 2.32742,1.35108 4.64286,-1.42857 -2.87495,-14.83033 1.63712,-25.96716 8.21429,-36.07143 0.74965,-3.59689 0.10993,-8.99996 10,-0.71429 l 47.5,55 c 7.07663,14.08976 15.77915,27.14487 33.21428,34.64286 6.90231,4.05745 13.33579,9.99019 19.28572,17.85714 l 12.85714,22.14286 c 6.82316,11.89167 10.21284,13.04653 15,18.57143 -9.12771,-12.1832 -10.36666,-17.1948 1.42857,-10.35715 l -11.07143,-9.28571 -11.07143,-17.85714 c 0.0756,-2.74263 -3.83864,-10.27303 5,-2.5 14.06989,7.60314 22.12861,19.49997 29.64286,31.78571 36.10316,29.15358 27.34338,17.40272 33.92857,19.64286 -12.79885,-7.86732 -25.43568,-15.96147 -33.57143,-30.35714 l -27.5,-29.64286 c -8.69047,-7.93375 -17.38095,-10.13476 -26.07142,-13.57143 -14.11297,-10.28402 -26.23342,-25.21726 -37.5,-42.14286 l 9.64285,2.14286 21.42857,12.85714 -2.85714,-6.07143 c -4.96149,-2.76611 -10.76404,-6.65364 -18.57143,-13.21428 -21.37054,-1.30736 -31.18822,-19.41886 -42.5,-35.35714 l -13.57143,-21.78572 c -6.53919,-62.72545 14.03913,-84.77464 37.5,-102.5 20.91096,-15.8673 43.90439,-38.57702 58.57143,-33.92857 0.40617,5.20132 -0.0879,11.07779 3.92857,13.57143 -0.59752,4.40934 -0.68575,7.80008 -2.14285,13.92857 l -6.42857,5.71429 c -3.88966,4.77015 -2.4581,7.41181 -1.78572,10.35714 2.29636,-3.42667 4.46272,-7.91156 7.14286,-8.21429 0.5013,8.46809 3.43129,16.6205 12.85714,23.92857 -3.31334,-6.77905 -6.28994,-13.44585 -6.78571,-19.28571 0.43379,-7.65329 0.91669,-15.40481 3.21428,-26.78571 -4.20748,-5.35714 -1.9465,-10.71429 0.35715,-16.07143 1.87424,-3.12271 4.31707,-7.95123 7.14285,-13.92857 11.20869,-20.73265 22.82958,-41.2821 25.71429,-65.71429 -4.03067,5.06781 -7.72074,11.49801 -13.57143,9.28571 -7.21628,-3.67806 -12.35303,-12.70778 -19.64286,-19.64285 z"
       id="path5895"
       inkscape:connector-curvature="0"
       sodipodi:nodetypes="cccccccccccccccccccccccccccccccccccccccccccccccccccccccccccccccccccccc" />
    <path
       style="display:inline;fill:#c97901;fill-opacity:1;fill-rule:evenodd;stroke:#000000;stroke-width:3.3499999;stroke-linecap:butt;stroke-linejoin:miter;stroke-miterlimit:4;stroke-dasharray:none;stroke-opacity:1"
       d="m 455.94353,424.60295 9.28571,53.21429 c 16.00616,26.22323 33.80358,26.24637 41.07143,29.28571 9.73306,1.83641 12.38026,6.83906 10.35715,13.92858 -7.51454,-4.37569 -15.83001,-7.14952 -24.28572,-9.64286 -6.07193,4.24129 -1.60783,12.00237 0.35714,18.92857 l 8.92858,40.71429 5.35714,36.78571 4.28571,22.14286 5,26.42857 -9.28571,-27.14286 c -8.36591,37.98679 8.15745,74.45302 -36.78572,117.5 7.29486,-15.92702 17.3977,-26.38941 23.92858,-53.21428 l -20,16.78571 2.85714,-8.92857 -2.5,-7.85714 c 7.5776,6.29894 12.77815,-1.66446 18.57143,-6.07143 4.27044,-19.41325 10.31585,-37.84041 6.42857,-61.78572 1.97109,-42.96826 -4.73583,-45.43912 -7.85714,-64.64285 l -3.92858,15.35714 c -0.45588,3.94503 0.15177,7.7128 5.35715,10.71428 l 0.71428,13.21429 c -3.97378,-8.03599 -8.34757,-18.00534 -6.78571,0.71429 -2.72783,6.87091 -5.41689,13.83872 -10,16.07142 5.30832,-16.72926 7.38189,-28.80424 5,-37.85714 l 1.78571,-23.57143 c 0.81924,-9.17195 3.2176,-17.75173 -3.21428,-29.64285 -5,-12.32256 -10,-27.84074 -15,-43.92858 z"
       id="path5899"
       inkscape:connector-curvature="0"
       sodipodi:nodetypes="ccccccccccccccccccccccccccccc" />
    <path
       style="display:inline;fill:#700902;fill-opacity:1;fill-rule:evenodd;stroke:#c00602;stroke-width:1px;stroke-linecap:butt;stroke-linejoin:miter;stroke-opacity:1"
       d="m 403.52957,382.95304 c -5.02287,14.32624 -8.63391,31.10032 -18.1052,48.0249 0,0 -16.74507,17.63501 -16.74507,19.65532 -25.63825,2.23773 -43.94736,22.7983 -64.64976,37.37564 -36.96172,28.97829 -38.18674,67.48638 -35.35534,107.07617 23.81071,45.36043 45.75367,54.06052 64.64977,81.82236 13.32588,9.79654 15.92452,21.97692 40.4061,29.29442 -19.25662,-2.53719 -28.72537,-18.77739 -41.92133,-29.7995 C 311.8926,643.78438 283.72362,630.99973 273.21989,596.09523 253.3672,522.61656 300.85826,479.68832 368.6793,448.61295 l 17.67767,-17.17259 z"
       id="path5903"
       inkscape:connector-curvature="0"
       sodipodi:nodetypes="cccccccccccc" />
    <path
       sodipodi:nodetypes="cccccccccccc"
       inkscape:connector-curvature="0"
       id="path5914"
       d="m 406.56003,381.43781 c -5.02287,14.32624 -9.64406,31.10032 -19.11535,48.0249 0,0 -16.74507,17.63501 -16.74507,19.65532 -25.63825,2.23773 -43.94736,22.7983 -64.64976,37.37564 -36.96172,28.97829 -38.18674,67.48638 -35.35534,107.07617 23.81071,45.36043 45.75367,54.06052 64.64977,81.82236 13.32588,9.79654 15.92452,21.97692 40.4061,29.29442 -19.25662,-2.53719 -28.72537,-18.77739 -41.92133,-29.7995 C 313.91291,642.26915 285.74393,629.4845 275.2402,594.58 255.38751,521.10133 302.87857,478.17309 370.69961,447.09772 l 17.67767,-17.17259 z"
       style="display:inline;fill:#225d6a;fill-opacity:1;fill-rule:evenodd;stroke:#156295;stroke-width:0.2;stroke-linecap:butt;stroke-linejoin:miter;stroke-miterlimit:4;stroke-dasharray:none;stroke-opacity:1" />
    <path
       style="display:inline;fill:#235d6b;fill-opacity:1;fill-rule:evenodd;stroke:#c21d02;stroke-width:1px;stroke-linecap:butt;stroke-linejoin:miter;stroke-opacity:1"
       d="m 476.76563,497.60535 c 9.62883,12.96362 11.9533,25.92725 13.63706,38.89087 8.15091,30.6413 11.27318,61.28259 14.14213,91.92389 -3.48494,81.08343 -8.26962,68.41787 -19.1929,95.96449 14.04819,-18.6819 16.90217,-52.60646 17.1726,-97.9848 0.44088,-25.26862 0.73232,-49.57803 -13.13199,-87.88327 z"
       id="path5916"
       inkscape:connector-curvature="0"
       sodipodi:nodetypes="ccccccc" />
  </g>
</svg>
