<svg width="141" height="204" viewBox="0 0 141 204" fill="none" xmlns="http://www.w3.org/2000/svg">
<path fill-rule="evenodd" clip-rule="evenodd" d="M26.4191 194.518C25.2043 194.248 23.9029 192.455 23.655 190.709C23.2841 188.097 22.5212 169.824 22.5371 161.555C22.5492 155.241 22.6728 153.35 23.1972 151.458C24.9198 145.244 28.1137 142.742 32.933 143.83C36.3715 144.606 41.9025 148.009 46.8609 152.398L48.4339 153.79L48.0171 160.473C47.1334 174.642 45.6535 183.619 44.5177 188.676C44.0665 190.684 43.7374 191.309 42.5788 192.356C41.8113 193.049 40.5621 193.804 39.8027 194.033C38.3931 194.459 27.8697 194.84 26.4191 194.518Z" fill="#0293E1" stroke="black" stroke-width="3.60961" stroke-linecap="round"/>
<path fill-rule="evenodd" clip-rule="evenodd" d="M85.1152 76.5514C76.1165 70.757 70.3188 66.6234 59.6328 58.3827L45.7995 47.715L42.0447 47.7207C33.7492 47.7332 23.6626 48.3976 21.2073 49.0933L18.7485 49.79L17.1879 48.7085C14.8334 47.0769 13.4842 44.88 13.2731 42.3343C13.1749 41.15 13.2498 40.1798 13.4399 40.1784C14.8108 40.168 22.8987 38.5376 23.2318 38.2045C23.9373 37.4989 22.9955 36.5364 19.8738 34.7728C16.0735 32.6259 15.9591 32.5089 15.9591 30.7724C15.9591 28.8024 17.055 26.8711 18.9481 25.5051L20.5043 24.3821L32.7566 28.3464C60.5397 37.3359 70.2267 39.891 82.9518 41.5861C89.171 42.4145 100.38 42.5234 105.678 41.8068C114.862 40.5645 120.213 38.1722 128.569 34.02C134.622 31.012 135.117 30.9856 137.279 33.5557C138.173 34.6177 138.347 35.2008 138.347 37.1376V39.451L135.284 41.118C132.198 42.797 130.442 44.1041 130.442 44.721C130.442 44.9047 132.309 45.9292 134.592 46.9977C138.427 48.7931 138.741 49.0249 138.733 50.0532C138.712 52.7172 134.459 57.8687 131.164 59.5517C129.911 60.1921 130.85 46.9732 127.686 48.5492C120.204 52.2765 104.734 52.5176 99.7647 62.8492C97.6457 67.2547 96.8463 71.4711 96.8125 78.4197C96.7974 81.517 96.7805 84.0515 96.7748 84.0518C96.7691 84.0521 91.5223 80.6769 85.1152 76.5514Z" fill="#0293E1" stroke="black" stroke-width="3.53553" stroke-linecap="round"/>
<path fill-rule="evenodd" clip-rule="evenodd" d="M22.197 73.4431C22.8008 60.0011 23.2777 58.9453 24.2954 48.6786L25.1182 40.3786L27.1589 38.2836C32.2223 33.0856 38.046 32.2553 46.537 35.5209L49.6458 36.7166L49.0759 58.1571L22.197 73.4431Z" stroke="black" stroke-width="3.536" stroke-linecap="round"/>
<path fill-rule="evenodd" clip-rule="evenodd" d="M23.0642 70.947C23.0642 68.9688 23.8391 60.1298 24.8581 50.4841L25.8838 40.7749L27.8166 38.812C28.9369 37.6742 30.7341 36.3631 32.0919 35.693C34.2455 34.63 34.7116 34.5385 37.8736 34.5578C40.8192 34.5757 41.8316 34.7573 44.9265 35.8225L48.5401 37.0663L48.6621 39.0538C48.7293 40.1469 48.6714 44.7914 48.5335 49.3748L48.2828 57.7084L35.9445 64.707C29.1585 68.5562 23.4843 71.7674 23.3352 71.8429C23.1862 71.9184 23.0642 71.5153 23.0642 70.947Z" fill="#0293E1" stroke="black" stroke-width="3.60961" stroke-linecap="round"/>
<path fill-rule="evenodd" clip-rule="evenodd" d="M27.7152 63.3804C34.0245 61.2462 38.3107 57.3137 41.2697 52.2014C43.3655 48.1672 46.6773 46.3217 50.6321 45.6337L60.5535 44.3761C65.3123 44.5431 66.8789 46.9445 67.9596 49.6861L73.8286 63.3804C81.0746 75.4742 89.3836 78.7095 97.7237 81.686C135.165 128.54 122.003 152.068 113.374 177.686C108.646 184.76 118.303 181.046 95.0687 202C73.0224 199.125 52.4458 191.743 35.9597 171.817C24.3611 154.687 9.33698 152.629 2.28294 115.503C0.804809 90.4262 10.1251 73.7042 27.7152 63.3804Z" stroke="black" stroke-width="3.57333"/>
<path fill-rule="evenodd" clip-rule="evenodd" d="M93.3487 201.045C89.7629 200.546 80.5223 198.547 76.7774 197.46C59.8584 192.549 45.3061 182.784 35.4116 169.704C33.9004 167.706 30.0568 163.383 26.8703 160.096C17.0193 149.935 14.3994 146.586 10.8425 139.609C6.86485 131.807 3.33101 119.796 2.94638 112.771C2.30152 100.995 5.49313 88.3584 11.3518 79.4926C15.6473 72.9923 24.1119 65.6463 30.0277 63.2847C32.6095 62.2541 36.5219 59.5395 38.3624 57.5019C39.1246 56.6581 40.6084 54.6419 41.6596 53.0215C45.1722 47.6072 46.6753 46.8515 56.1855 45.7181C61.4145 45.0949 61.7182 45.0944 63.3207 45.7064C64.2852 46.0747 65.3538 46.8295 65.8427 47.4877C66.3093 48.1159 68.1711 52.0801 69.9802 56.2971C73.5952 64.7238 74.0129 65.4844 77.2072 69.4551C79.4701 72.268 81.9444 74.5453 84.9831 76.6118C87.0392 78.0101 93.3837 81.0519 95.6514 81.7265C97.0963 82.1564 97.5594 82.6382 101.072 87.3664C117.538 109.532 123.963 128.08 121.538 146.45C120.962 150.813 119.708 156.374 118.276 160.917C116.437 166.749 112.922 176.618 112.11 178.227C111.645 179.149 111.099 180.931 110.897 182.188C110.636 183.81 110.142 185.053 109.193 186.474C107.909 188.399 95.1731 201.361 94.6754 201.25C94.5419 201.221 93.9449 201.128 93.3487 201.045Z" fill="#DD1B02" stroke="black" stroke-width="3.60961" stroke-linecap="round"/>
<path fill-rule="evenodd" clip-rule="evenodd" d="M94.8823 42.2328C88.0138 23.0573 78.4083 71.2583 78.4083 71.2583C76.4267 71.5414 65.6976 45.0317 61.784 45.3813C59.8204 45.5567 52.8554 45.8345 52.8259 45.8006C52.7965 45.7668 52.9848 41.8204 53.6061 39.9555C55.7032 33.6597 56.7403 29.7846 63.3316 22.5853C64.5579 21.302 65.1576 20.0397 65.1576 18.7414C65.1576 17.688 63.4761 14.5326 60.7696 10.507C59.6055 8.77555 58.6531 7.12125 58.6531 6.83076C58.6531 5.99278 60.4954 4.02725 61.7865 3.48779C62.4353 3.2167 63.5356 2.99489 64.2317 2.99489C65.4946 2.99489 65.4989 3.0005 66.3381 5.76033C67.2766 8.84654 67.8981 9.36757 69.7245 8.5996C70.565 8.2462 71.1046 7.53657 72.0258 5.57305C73.107 3.26866 73.3875 2.94772 74.7872 2.41316C76.2242 1.86436 76.4145 1.86358 77.2379 2.40311C78.1608 3.00778 79.047 5.33641 78.6192 6.03253C78.4856 6.24993 77.3534 7.75388 76.1032 9.37465C74.08 11.9976 73.8302 12.5018 73.8302 13.9618C73.8302 15.1781 74.0567 15.8643 74.7061 16.6161C75.5713 17.6176 75.6277 17.6289 79.3093 17.543C82.6924 17.4641 83.0964 17.3807 83.6839 16.6396C85.0545 14.9108 86.3122 12.488 87.5654 9.16206C89.0721 5.16347 89.7384 4.60749 92.9823 4.64237C95.0282 4.66437 96.3962 5.20861 98.1036 6.6798L99.0693 7.51188L98.3635 12.2096C97.7067 16.5805 97.6979 17.0133 98.2367 18.4325C99.0944 20.6917 100.597 22.1473 102.071 22.1456C104.04 22.1435 105.432 20.9662 108.047 17.0909L110.508 13.4427L112.584 13.6047C115.079 13.7995 116.808 14.7284 117.407 16.1956C117.823 17.2154 117.702 17.5403 115.328 21.7867C113.942 24.2664 112.629 26.9659 112.409 27.7857C113.206 34.8464 120.027 33.896 121.058 38.3471C115.97 40.7661 103.271 44.3543 94.8823 42.2328Z" fill="#DD1B02" stroke="black" stroke-width="3.60961" stroke-linecap="round"/>
<path fill-rule="evenodd" clip-rule="evenodd" d="M104.274 66.8639C103.526 66.6781 102.306 66.2162 101.563 65.8374L100.213 65.1486L98.7983 56.8892L121.896 50.5776V58.6685L120.512 59.7923C117.126 62.5406 112.71 65.4841 110.995 66.1359C108.667 67.0211 106.05 67.3046 104.274 66.8639Z" fill="#DD1B02" stroke="black" stroke-width="3.60961" stroke-linecap="round"/>
<path fill-rule="evenodd" clip-rule="evenodd" d="M84.1817 104.347C89.1 109.019 94.9031 110.741 95.9356 128.366C96.5799 135.224 94.7765 141.266 91.3363 146.763C97.514 159.951 99.2959 175.652 95.9356 194.29C84.255 183.929 76.1137 170.914 69.8726 156.473C68.9891 148.792 69.3185 141.717 76.5161 138.076C67.3901 135.484 68.8533 127.598 67.3174 121.211C70.3771 110.466 77.0998 107.047 84.1817 104.347Z" fill="#FC5F54" stroke="black" stroke-width="1.06667"/>
<path fill-rule="evenodd" clip-rule="evenodd" d="M27.9673 70.1074C5.98483 81.7235 7.46233 98.0316 4.97046 113.546C20.8116 96.9111 30.4708 93.6703 38.1881 94.6373C52.2638 85.2619 55.7469 78.913 60.6738 72.1516C53.8655 67.581 59.6682 51.03 27.9673 70.1074Z" fill="#FC5F54" stroke="black" stroke-width="1.06667"/>
<path fill-rule="evenodd" clip-rule="evenodd" d="M69.4894 55.5427C71.9231 59.7416 75.0398 63.6381 73.8332 68.8298C72.9 75.9704 68.697 79.5228 65.0178 83.6499C61.1014 85.5663 58.0901 87.4827 55.1802 89.3991C51.9172 90.5283 48.7767 92.1479 45.8537 94.6373L37.6771 96.8092L30.7781 100.131L25.0289 102.814L27.3285 103.836L34.3553 99.4922L34.7386 101.153L40.1045 97.8313L43.2985 96.8092L31.8001 110.224C29.9631 111.927 28.1403 113.631 27.9673 115.334C25.3496 115.994 24.1823 119.128 22.4737 121.339L14.6803 128.11C16.6962 127.249 19.3118 125.388 19.4074 127.727L18.5131 130.41L17.491 134.626V136.415L16.3412 140.886L17.8743 139.098L18.6409 136.798C18.4552 135.151 20.1066 135.765 21.5793 136.159L20.3017 133.349L21.9626 125.938C23.824 121.855 25.814 118.607 28.3506 118.912C29.4479 122.111 29.1037 126.056 27.4563 129.26C23.0292 139.096 22.7136 144.232 20.4295 151.618C18.6178 155.566 20.6495 156.098 21.7071 157.495C21.8591 158.53 22.5397 157.979 23.368 156.984C22.3395 151.679 23.9536 147.695 26.3065 144.08C26.5746 142.794 26.3458 140.861 29.8837 143.825L46.8758 163.5C49.4073 168.54 52.5205 173.21 58.7575 175.893C61.2267 177.344 63.5281 179.466 65.6566 182.281L70.2559 190.202C72.6968 194.456 73.9093 194.869 75.6218 196.845C72.3566 192.487 71.9134 190.694 76.1329 193.14L72.1723 189.819L68.2118 183.431C68.2388 182.449 66.8386 179.756 70.0004 182.536C75.0336 185.256 77.9164 189.512 80.6045 193.907C93.5196 204.336 90.386 200.132 92.7417 200.934C88.1632 198.119 83.6426 195.224 80.7322 190.074L70.8947 179.47C67.7859 176.632 64.6771 175.844 61.5682 174.615C56.5196 170.936 52.1838 165.594 48.1534 159.539L51.603 160.306L59.2685 164.905L58.2465 162.733C56.4716 161.744 54.3959 160.353 51.603 158.006C43.9581 157.539 40.446 151.06 36.3995 145.358L31.5446 137.565C29.2054 115.126 36.5668 107.238 44.9594 100.898C52.4399 95.2214 60.6653 87.0974 65.9121 88.7603C66.0574 90.621 65.8806 92.7232 67.3174 93.6152C67.1037 95.1926 67.0721 96.4055 66.5509 98.5978L64.2512 100.642C62.8598 102.348 63.3719 103.293 63.6124 104.347C64.4339 103.121 65.2088 101.517 66.1676 101.409C66.3469 104.438 67.3951 107.354 70.7669 109.968C69.5817 107.543 68.5169 105.159 68.3395 103.069C68.4947 100.332 68.6674 97.5587 69.4894 93.4874C67.9842 91.571 68.793 89.6547 69.6171 87.7383C70.2876 86.6212 71.1615 84.8939 72.1723 82.7556C76.182 75.339 80.3391 67.9878 81.371 59.2478C79.9292 61.0607 78.6091 63.3609 76.5162 62.5695C73.9347 61.2538 72.0971 58.0236 69.4894 55.5427Z" fill="#C97901" stroke="black" stroke-width="3.57333"/>
<path fill-rule="evenodd" clip-rule="evenodd" d="M96.5742 77.7728L99.896 96.8091C105.622 106.19 111.988 106.198 114.588 107.285C118.07 107.942 119.017 109.732 118.293 112.268C115.605 110.703 112.631 109.71 109.606 108.819C107.434 110.336 109.031 113.112 109.733 115.59L112.927 130.154L114.844 143.314L116.377 151.235L118.166 160.689L114.844 150.979C111.851 164.568 117.762 177.613 101.685 193.012C104.294 187.315 107.908 183.572 110.245 173.976L103.09 179.981L104.112 176.787L103.218 173.976C105.928 176.229 107.789 173.381 109.861 171.804C111.389 164.86 113.552 158.268 112.161 149.702C112.866 134.331 110.467 133.447 109.35 126.577L107.945 132.071C107.782 133.482 107.999 134.83 109.861 135.904L110.117 140.631C108.695 137.756 107.131 134.19 107.689 140.886C106.714 143.344 105.752 145.837 104.112 146.635C106.011 140.651 106.753 136.331 105.901 133.093L106.539 124.661C106.833 121.38 107.691 118.31 105.39 114.057C103.601 109.649 101.812 104.097 100.024 98.3422L96.5742 77.7728Z" fill="#C97901" stroke="black" stroke-width="3.57333"/>
<path fill-rule="evenodd" clip-rule="evenodd" d="M77.8243 62.8735C76.0275 67.9984 74.7357 73.999 71.3476 80.0534C71.3476 80.0534 65.3574 86.3619 65.3574 87.0847C56.1859 87.8852 49.6362 95.2402 42.2304 100.455C29.0081 110.821 28.5699 124.597 29.5828 138.759C38.1005 154.986 45.9501 158.098 52.7098 168.029C57.4768 171.534 58.4064 175.891 67.1642 178.509C60.2756 177.601 56.8883 171.792 52.1678 167.849C45.0432 156.18 34.9664 151.607 31.2089 139.12C24.107 112.835 41.0959 97.4785 65.3574 86.3619L71.6812 80.2188L77.8243 62.8735Z" fill="#700902" stroke="#C00602" stroke-width="1.06667"/>
<path fill-rule="evenodd" clip-rule="evenodd" d="M78.9084 62.3315C77.1116 67.4564 75.4585 73.457 72.0703 79.5114C72.0703 79.5114 66.0802 85.8199 66.0802 86.5427C56.9086 87.3432 50.359 94.6983 42.9531 99.913C29.7309 110.279 29.2927 124.055 30.3055 138.217C38.8233 154.444 46.6729 157.556 53.4326 167.487C58.1996 170.992 59.1292 175.349 67.887 177.967C60.9983 177.059 57.6111 171.25 52.8905 167.307C45.766 155.638 35.6891 151.065 31.9317 138.578C24.8298 112.293 41.8187 96.9365 66.0802 85.8199L72.404 79.6768L78.9084 62.3315Z" fill="#225D6A" stroke="#156295" stroke-width="0.213333"/>
<path fill-rule="evenodd" clip-rule="evenodd" d="M104.023 103.888C107.467 108.525 108.299 113.163 108.901 117.8C111.817 128.762 112.934 139.723 113.96 150.684C112.714 179.69 111.002 175.159 107.095 185.013C112.12 178.33 113.141 166.194 113.238 149.961C113.395 140.922 113.5 132.226 108.54 118.523L104.023 103.888Z" fill="#235D6B" stroke="#C21D02" stroke-width="1.06667"/>
</svg>
