<?xml version="1.0" encoding="UTF-8" standalone="no"?>
<!DOCTYPE svg PUBLIC "-//W3C//DTD SVG 1.1//EN" "http://www.w3.org/Graphics/SVG/1.1/DTD/svg11.dtd">
<svg width="100%" height="100%" viewBox="0 0 1199 731" version="1.1" xmlns="http://www.w3.org/2000/svg" xmlns:xlink="http://www.w3.org/1999/xlink" xml:space="preserve" xmlns:serif="http://www.serif.com/" style="fill-rule:evenodd;clip-rule:evenodd;stroke-miterlimit:10;">
    <g transform="matrix(1,0,0,1,-1142.7,-419.075)">
        <g transform="matrix(4.16667,0,0,4.16667,0,0)">
            <g id="money">
                <g transform="matrix(0.154,0.988071,0.988071,-0.154,445.208,72.6188)">
                    <path d="M60.124,-164.594L160.748,-164.594C160.746,-74.134 208.842,-41.98 163.936,74.632L63.315,74.631C108.219,-41.98 60.124,-74.134 60.124,-164.594" style="fill:rgb(90,112,58);fill-rule:nonzero;"/>
                </g>
                <g transform="matrix(1,0,0,1,457.025,136.937)">
                    <path d="M0,113.078C-24.303,116.866 -45.426,115.071 -67.789,113.171C-91.057,111.194 -115.069,109.154 -144.677,113.074L-158.325,25.514C-130.089,21.815 -106.838,23.791 -84.304,25.706C-61.202,27.669 -39.381,29.523 -13.649,25.513C12.184,21.486 38.021,12.127 67.077,-3.788L80.605,83.003C51.23,99.519 25.528,109.099 0,113.078" style="fill:rgb(111,156,63);fill-rule:nonzero;"/>
                </g>
                <g transform="matrix(0.154,0.988071,0.988071,-0.154,445.208,72.6188)">
                    <path d="M60.124,-164.594L160.748,-164.594C160.746,-74.134 208.842,-41.98 163.936,74.632L63.315,74.631C108.219,-41.98 60.124,-74.134 60.124,-164.594Z" style="fill:none;fill-rule:nonzero;stroke:black;stroke-width:3.5px;"/>
                </g>
                <g transform="matrix(1,0,0,1,509.289,176.99)">
                    <path d="M0,45.765C-2.079,32.431 7.046,19.936 20.381,17.858L15.494,-13.496C4.601,-11.797 -5.729,-17.579 -10.28,-27.021C-29.294,-18.751 -47.286,-13.396 -65.298,-10.589C-91.505,-6.504 -113.559,-8.378 -136.907,-10.362C-151.163,-11.573 -165.716,-12.802 -181.615,-12.589C-180.826,-0.124 -189.655,11.113 -202.237,13.074L-197.351,44.426C-184.017,42.348 -171.522,51.473 -169.443,64.807C-169.336,65.498 -169.266,66.186 -169.217,66.87C-151.388,66.448 -135.382,67.801 -119.716,69.132C-97.598,71.011 -76.708,72.786 -52.882,69.073C-35.163,66.311 -17.321,60.765 1.848,52.002C0.978,50.058 0.344,47.971 0,45.765" style="fill:rgb(178,220,122);fill-rule:nonzero;"/>
                </g>
                <g transform="matrix(1,0,0,1,336.891,166.332)">
                    <path d="M0,67.059C1.452,69.586 2.479,72.413 2.955,75.465C3.063,76.157 3.133,76.844 3.182,77.529C19.997,77.129 35.187,78.313 50.003,79.565C95.98,53.33 130.022,17.353 152.772,-12.506C137.159,-6.399 122.136,-2.274 107.101,0.07C94.56,2.025 82.974,2.606 71.737,2.473C55.621,23.733 32.006,48.534 0,67.059" style="fill:rgb(224,255,168);fill-rule:nonzero;"/>
                </g>
                <g transform="matrix(0.56755,0.823339,0.823339,-0.56755,390.372,177.575)">
                    <path d="M63.745,-30.067C70.629,-21.541 77.221,-12.953 83.259,-3.484C83.667,43.627 73.386,86.876 63.745,116.882C59.536,109.702 52.1,105.391 44.209,104.888C62.3,53.312 65.316,5.293 63.745,-30.067" style="fill:rgb(224,255,168);fill-rule:nonzero;"/>
                </g>
                <g transform="matrix(-0.153998,-0.988071,-0.988071,0.153998,410.804,184.727)">
                    <path d="M-23.713,-27.696C-42.499,-27.696 -57.726,-16.951 -57.726,-3.696C-57.727,9.559 -42.498,20.304 -23.713,20.305C-4.928,20.304 10.3,9.56 10.3,-3.696C10.3,-16.951 -4.927,-27.696 -23.713,-27.696" style="fill:rgb(111,156,63);fill-rule:nonzero;"/>
                </g>
                <g transform="matrix(-0.153998,-0.988071,-0.988071,0.153998,353.33,191.909)">
                    <path d="M-11.856,-13.848C-18.483,-13.849 -23.856,-8.475 -23.856,-1.848C-23.856,4.78 -18.483,10.152 -11.856,10.152C-5.228,10.151 0.144,4.779 0.144,-1.848C0.144,-8.476 -5.228,-13.848 -11.856,-13.848" style="fill:rgb(111,156,63);fill-rule:nonzero;"/>
                </g>
                <g transform="matrix(-0.153998,-0.988071,-0.988071,0.153998,471.834,185.582)">
                    <path d="M-11.856,-13.848C-18.484,-13.849 -23.857,-8.476 -23.856,-1.848C-23.857,4.779 -18.484,10.152 -11.856,10.152C-5.229,10.152 0.143,4.779 0.144,-1.848C0.144,-8.476 -5.229,-13.848 -11.856,-13.848" style="fill:rgb(111,156,63);fill-rule:nonzero;"/>
                </g>
                <g transform="matrix(0.0897212,0.995967,0.995967,-0.0897212,468.204,71.6736)">
                    <path d="M53.504,-177.374L154.127,-177.374C154.128,-86.914 202.222,-54.759 157.32,61.852L56.697,61.853C101.599,-54.759 53.506,-86.913 53.504,-177.374" style="fill:rgb(90,112,58);fill-rule:nonzero;"/>
                </g>
                <g transform="matrix(1,0,0,1,455.192,133.945)">
                    <path d="M0,110.073C-24.497,112.279 -45.46,109.121 -67.652,105.777C-90.743,102.298 -114.574,98.708 -144.373,100.703L-152.324,12.442C-123.908,10.579 -100.834,14.056 -78.471,17.426C-55.545,20.881 -33.89,24.143 -7.952,21.807C18.088,19.462 44.477,11.794 74.502,-2.206L82.383,85.279C52.001,99.858 25.732,107.755 0,110.073" style="fill:rgb(111,156,63);fill-rule:nonzero;"/>
                </g>
                <g transform="matrix(0.0897212,0.995967,0.995967,-0.0897212,468.204,71.6736)">
                    <path d="M53.504,-177.374L154.127,-177.374C154.128,-86.914 202.222,-54.759 157.32,61.852L56.697,61.853C101.599,-54.759 53.506,-86.913 53.504,-177.374Z" style="fill:none;fill-rule:nonzero;stroke:black;stroke-width:3.5px;"/>
                </g>
                <g transform="matrix(1,0,0,1,509.11,168.899)">
                    <path d="M0,51.298C-1.211,37.858 8.704,25.98 22.145,24.769L19.298,-6.835C8.318,-5.846 -1.616,-12.283 -5.547,-22C-25.056,-14.977 -43.356,-10.8 -61.512,-9.164C-87.929,-6.784 -109.814,-10.082 -132.986,-13.573C-147.134,-15.705 -161.576,-17.874 -177.457,-18.689C-177.476,-6.2 -187.014,4.441 -199.696,5.583L-196.85,37.187C-183.408,35.977 -171.531,45.891 -170.32,59.332C-170.258,60.028 -170.231,60.719 -170.228,61.405C-152.408,62.138 -136.523,64.525 -120.977,66.867C-99.027,70.174 -78.296,73.298 -54.278,71.134C-36.419,69.526 -18.255,65.146 1.441,57.642C0.698,55.646 0.2,53.522 0,51.298" style="fill:rgb(178,220,122);fill-rule:nonzero;"/>
                </g>
                <g transform="matrix(1,0,0,1,336.386,165.859)">
                    <path d="M0,53.792C1.286,56.408 2.127,59.297 2.404,62.373C2.467,63.069 2.493,63.76 2.497,64.446C19.303,65.137 34.384,67.3 49.089,69.509C96.667,46.306 132.967,12.608 157.603,-15.717C141.627,-10.633 126.368,-7.488 111.213,-6.123C98.571,-4.984 86.972,-5.154 75.768,-6.015C58.309,14.157 33.138,37.378 0,53.792" style="fill:rgb(224,255,168);fill-rule:nonzero;"/>
                </g>
                <g transform="matrix(0.51307,0.858347,0.858347,-0.51307,395.396,163.241)">
                    <path d="M66.287,-33.95C73.171,-25.424 79.762,-16.835 85.799,-7.367C86.21,39.743 75.929,82.991 66.287,112.999C62.079,105.818 54.644,101.508 46.752,101.005C64.842,49.429 67.858,1.41 66.287,-33.95" style="fill:rgb(224,255,168);fill-rule:nonzero;"/>
                </g>
                <g transform="matrix(-0.089728,-0.995966,-0.995966,0.089728,414.813,175.547)">
                    <path d="M-23.903,-26.153C-42.688,-26.154 -57.916,-15.408 -57.916,-2.153C-57.916,11.102 -42.688,21.847 -23.903,21.847C-5.118,21.847 10.11,11.101 10.111,-2.153C10.11,-15.409 -5.118,-26.153 -23.903,-26.153" style="fill:rgb(111,156,63);fill-rule:nonzero;"/>
                </g>
                <g transform="matrix(-0.0897092,-0.995968,-0.995968,0.0897092,356.237,179.155)">
                    <path d="M-11.952,-13.076C-18.58,-13.076 -23.952,-7.704 -23.952,-1.076C-23.951,5.552 -18.58,10.924 -11.952,10.924C-5.324,10.924 0.047,5.552 0.048,-1.076C0.048,-7.703 -5.324,-13.075 -11.952,-13.076" style="fill:rgb(111,156,63);fill-rule:nonzero;"/>
                </g>
                <g transform="matrix(-0.0897092,-0.995968,-0.995968,0.0897092,474.901,180.514)">
                    <path d="M-11.952,-13.076C-18.579,-13.077 -23.952,-7.704 -23.951,-1.076C-23.952,5.551 -18.579,10.924 -11.952,10.923C-5.325,10.924 0.048,5.551 0.048,-1.077C0.049,-7.703 -5.324,-13.076 -11.952,-13.076" style="fill:rgb(111,156,63);fill-rule:nonzero;"/>
                </g>
                <g transform="matrix(0,1,1,0,498.105,72.9113)">
                    <path d="M45.254,-193.972L145.877,-193.972C145.877,-103.512 193.972,-71.359 149.068,45.254L48.445,45.254C93.349,-71.359 45.254,-103.512 45.254,-193.972" style="fill:rgb(90,112,58);fill-rule:nonzero;"/>
                </g>
                <g transform="matrix(1,0,0,1,453.083,124.239)">
                    <path d="M0,110.903C-24.596,110.903 -45.19,105.877 -66.994,100.555C-89.68,95.018 -113.092,89.305 -142.95,88.619L-142.95,0C-114.481,0.694 -91.813,6.227 -69.842,11.59C-47.318,17.088 -26.043,22.28 -0.001,22.28C26.145,22.28 53.115,17.011 84.275,5.761L84.275,93.6C52.708,105.395 25.837,110.903 0,110.903" style="fill:rgb(111,156,63);fill-rule:nonzero;"/>
                </g>
                <g transform="matrix(0,1,1,0,498.105,72.9113)">
                    <path d="M45.254,-193.972L145.877,-193.972C145.877,-103.512 193.972,-71.359 149.068,45.254L48.445,45.254C93.349,-71.359 45.254,-103.512 45.254,-193.972Z" style="fill:none;fill-rule:nonzero;stroke:black;stroke-width:3.5px;"/>
                </g>
                <g transform="matrix(1,0,0,1,508.922,145.515)">
                    <path d="M0,70.741C0,57.246 10.94,46.305 24.437,46.305L24.437,14.573C13.411,14.573 4.096,7.271 1.053,-2.76C-19.008,2.484 -37.609,5.004 -55.839,5.004C-82.362,5.004 -103.864,-0.244 -126.629,-5.801C-140.529,-9.193 -154.718,-12.649 -170.462,-14.886C-171.601,-2.448 -182.056,7.294 -194.789,7.294L-194.789,39.025C-181.294,39.025 -170.354,49.966 -170.354,63.461C-170.354,64.16 -170.39,64.85 -170.447,65.534C-152.767,67.862 -137.159,71.665 -121.885,75.392C-100.32,80.655 -79.953,85.627 -55.839,85.627C-37.907,85.627 -19.424,82.894 0.866,77.188C0.306,75.134 0,72.973 0,70.741" style="fill:rgb(178,220,122);fill-rule:nonzero;"/>
                </g>
                <g transform="matrix(1,0,0,1,336.943,165.184)">
                    <path d="M0,35.03C1.046,37.751 1.625,40.703 1.625,43.792C1.625,44.491 1.589,45.181 1.531,45.865C18.207,48.061 33.033,51.569 47.48,55.088C96.949,36.247 136.125,5.942 163.202,-20.058C146.835,-16.428 131.355,-14.665 116.14,-14.665C103.446,-14.665 91.909,-15.875 80.827,-17.738C61.63,0.787 34.477,21.655 0,35.03" style="fill:rgb(224,255,168);fill-rule:nonzero;"/>
                </g>
                <g transform="matrix(0.433988,0.900919,0.900919,-0.433988,404.837,144.298)">
                    <path d="M69.056,-39.79C75.94,-31.265 82.531,-22.675 88.569,-13.207C88.978,33.903 78.697,77.152 69.056,107.159C64.846,99.978 57.412,95.667 49.52,95.165C67.611,43.589 70.625,-4.429 69.056,-39.79" style="fill:rgb(224,255,168);fill-rule:nonzero;"/>
                </g>
                <g transform="matrix(0,-1,-1,0,421.165,163.228)">
                    <path d="M-23.999,-24.001C-42.784,-24.001 -58.013,-13.256 -58.013,-0.001C-58.013,13.255 -42.784,23.999 -23.999,23.999C-5.215,23.999 10.014,13.255 10.014,-0.001C10.014,-13.256 -5.215,-24.001 -23.999,-24.001" style="fill:rgb(111,156,63);fill-rule:nonzero;"/>
                </g>
                <g transform="matrix(0,-1,-1,0,361.423,161.614)">
                    <path d="M-12,-12C-18.628,-12 -24,-6.628 -24,0C-24,6.627 -18.628,12 -12,12C-5.373,12 0,6.627 0,0C0,-6.628 -5.373,-12 -12,-12" style="fill:rgb(111,156,63);fill-rule:nonzero;"/>
                </g>
                <g transform="matrix(0,-1,-1,0,479.487,173.614)">
                    <path d="M-12,-12C-18.628,-12 -24,-6.628 -24,0C-24,6.627 -18.628,12 -12,12C-5.373,12 0,6.627 0,0C0,-6.628 -5.373,-12 -12,-12" style="fill:rgb(111,156,63);fill-rule:nonzero;"/>
                </g>
            </g>
        </g>
    </g>
</svg>
