<?xml version="1.0" encoding="utf-8"?>
<!-- Generator: Adobe Illustrator 27.5.0, SVG Export Plug-In . SVG Version: 6.00 Build 0)  -->
<svg version="1.1" xmlns="http://www.w3.org/2000/svg" xmlns:xlink="http://www.w3.org/1999/xlink" x="0px" y="0px"
	 viewBox="0 0 500 500" style="enable-background:new 0 0 500 500;" xml:space="preserve">
<g id="BACKGROUND">
	<g>
		<rect style="fill:#420266;" width="500" height="500"/>
	</g>
</g>
<g id="OBJECTS">
	<g>
		<g>
			<path style="fill:#2A0044;" d="M417.768,212.182c28.858-18.69,20.075-66.664-14.753-65.08
				c34.419-42.451-1.706-96.407-45.63-69.966c-9.926-45.566-63.729-57.994-83.368-13.015c-5.106-36.324-49.388-44.406-60.728-5.074
				c-39.145-41.057-103.292-1.593-82.113,51.026c-54.065-25.712-77.983,30.495-48.332,59.844
				c-50.005,36.308-14.928,109.042,43.349,84.416c-21.186,50.167,24.477,81.977,60.08,58.559
				c25.143,47.165,69.713,40.128,82.914,2.838c18.453,19.775,43.246,16.493,57.166-8.298c24.434,43.797,96.834,12.782,76.663-30.242
				C430.692,275.299,449.873,237.321,417.768,212.182z"/>
		</g>
		<ellipse style="fill:#2A0044;" cx="329" cy="444.5" rx="98" ry="28.5"/>
		<ellipse style="fill:#2A0044;" cx="167" cy="425.5" rx="98" ry="28.5"/>
		<ellipse style="fill:#2A0044;" cx="257" cy="383.5" rx="98" ry="28.5"/>
		<circle style="fill:#2A0044;" cx="427" cy="369" r="20"/>
		<circle style="fill:#2A0044;" cx="463.5" cy="106" r="6.5"/>
		<circle style="fill:#2A0044;" cx="76.5" cy="305.5" r="17.5"/>
		<circle style="fill:#2A0044;" cx="36.5" cy="165.5" r="4.5"/>
		<circle style="fill:#2A0044;" cx="87.5" cy="63.5" r="6.5"/>
		<circle style="fill:#2A0044;" cx="446" cy="214" r="5"/>
		<circle style="fill:#2A0044;" cx="444" cy="419" r="5"/>
		<circle style="fill:#2A0044;" cx="81" cy="378" r="5"/>
		<circle style="fill:#2A0044;" cx="52.5" cy="358.5" r="11.5"/>
		<circle style="fill:#2A0044;" cx="440.5" cy="70.5" r="11.5"/>
	</g>
	<g>
		<g>
			<path style="fill:#76FBDD;" d="M237.95,118.23c6.852-0.728,14.432-0.632,21.998-0.909c1.851-0.068,3.673,0.005,5.507,0.076
				c5.264,0.202,10.515-0.23,15.773-0.305c1.832-0.026,3.573,0.352,5.238,1.003c3.237,1.266,5.249,3.777,6.316,6.977
				c2.478,7.429-2.139,13.673-8.933,15.865c-1.739,0.561-3.486,1.175-5.359,1.159c-0.614-0.005-0.876,0.298-0.755,0.897
				c0.529,2.617,0.272,5.282,0.486,7.922c0.73,8.991,0.101,18.011,0.398,27.013c0.194,5.906,0.37,11.816,1.021,17.697
				c0.042,0.375,0.019,0.758,0.019,1.138c0.01,11.861,0.047,23.722,0.008,35.583c-0.01,3.072,0.515,5.961,1.704,8.81
				c1.495,3.58,2.823,7.225,4.551,10.712c1.034,2.086,2.549,3.816,3.771,5.755c0.95,1.508,1.874,3.038,2.704,4.614
				c1.351,2.565,3.871,4.266,5.099,6.888c2.001,4.275,5.47,7.494,8.004,11.369c2.477,3.786,5.781,6.956,8.032,10.864
				c1.782,3.094,4.137,5.83,5.599,9.109c1.754,3.933,3.831,7.774,4.776,11.986c0.862,3.843,1.787,7.722,1.876,11.691
				c0.058,2.592,0.345,5.163,0.15,7.791c-0.315,4.25-1.516,8.225-3.129,12.067c-1.644,3.916-3.495,7.753-5.482,11.519
				c-0.932,1.767-2.207,3.272-3.448,4.792c-2.762,3.385-5.554,6.738-8.554,9.936c-2.629,2.803-5.334,5.39-8.55,7.509
				c-1.752,1.155-3.112,2.869-4.913,4.017c-2.001,1.275-4.156,2.209-6.468,2.699c-2.172,0.46-4.091,1.595-6.261,2.09
				c-4.952,1.129-9.894,2.023-14.985,1.102c-0.279-0.05-0.564-0.125-0.842-0.109c-5.399,0.295-10.747-0.768-16.141-0.588
				c-1.999,0.067-3.893-0.478-5.791-1.018c-0.49-0.14-1.031-0.13-1.549-0.139c-3.278-0.056-6.428-0.866-9.596-1.581
				c-2.657-0.599-5.361-0.988-7.963-1.831c-3.283-1.063-6.451-2.385-8.996-4.779c-2.002-1.884-4.212-3.466-6.471-4.997
				c-3.723-2.523-6.598-5.839-9.056-9.566c-1.137-1.723-2.429-3.347-3.38-5.187c-1.466-2.836-2.133-5.978-3.367-8.91
				c-1.272-3.021-1.535-6.253-1.828-9.502c-0.297-3.284-0.008-6.53,0.14-9.781c0.124-2.719,0.779-5.397,1.427-8.047
				c0.602-2.464,1.255-4.918,1.949-7.358c0.812-2.854,2.168-5.478,3.541-8.092c3.712-7.066,8.279-13.504,13.671-19.412
				c2.453-2.688,5.38-4.981,7.418-7.978c2.107-3.098,5.063-5.465,7.027-8.62c3.121-5.015,6.082-10.141,8.042-15.743
				c1.468-4.195,2.773-8.451,4.029-12.716c0.419-1.422-0.186-2.907-0.302-4.364c-0.223-2.793-0.183-5.58-0.022-8.37
				c0.024-0.424,0.11-0.845,0.116-1.268c0.118-8.297,0.101-16.597,0.371-24.889c0.428-13.182-0.015-26.366,0.273-39.545
				c0.109-4.976,0.16-9.953,0.267-14.929c0.017-0.798,0.177-1.595,0.286-2.39c0.368-2.699,0.343-2.597-2.177-3.28
				c-4.556-1.235-8.019-3.874-10.255-8.134c-2.047-3.9-0.767-8.913,1.739-11.891C229.447,119.387,233.04,118.04,237.95,118.23z
				 M291.097,274.549c-0.168-0.901-0.596-1.714-1.184-2.363c-2.123-2.344-3.987-4.844-5.411-7.688
				c-1.465-2.925-3.811-5.274-5.073-8.408c-1.867-4.637-4.438-8.962-5.679-13.894c-0.876-3.481-1.835-6.955-1.889-10.526
				c-0.131-8.622-0.356-17.239-0.587-25.858c-0.158-5.913,0.216-11.828,0.365-17.74c0.303-12.028,0.072-24.069,0.085-36.104
				c0.004-3.873-0.312-7.797,0.661-11.581c0.98-3.807,2.655-5.336,6.465-4.207c1.595,0.473,4.822-0.412,6.151-1.181
				c2.229-1.289,2.599-4.614,2-7c-1-4-3.862-4.743-6.773-4.804c-1.892-0.04-3.781-0.217-5.673-0.24
				c-3.552-0.044-24.396,0.996-31.268,0.944c-1.376-0.011-2.723-0.189-4.086-0.382c-1.406-0.199-2.983-0.835-4.281,0.04
				c-1.397,0.942-2.663,2.131-3.81,3.374c-0.811,0.879-1.44,2.033-1.297,3.307c0.226,2.01,1.146,3.758,2.879,4.812
				c3.331,2.027,6.77,3.698,10.915,2.638c1.934-0.495,3.83,1.026,3.949,2.881c0.126,1.983-1.178,3.251-3.382,3.285
				c-0.427,0.007-0.862,0.054-1.279-0.01c-1.153-0.176-1.428,0.396-1.262,1.39c0.155,0.931,0.432,1.86,0.45,2.794
				c0.101,5.35,0.386,10.695,0.523,16.039c0.414,16.157-0.298,32.329,0.621,48.485c0.215,3.784,0.098,7.586,0.172,11.379
				c0.1,5.102,0.772,10.199,0.17,15.307c-0.395,3.351-0.373,6.733-1.325,10.043c-1.525,5.306-3.228,10.529-5.509,15.564
				c-1.84,4.062-4.148,7.852-6.497,11.624c-0.421,0.877-1.439,1.288-1.754,2.247c-0.621-0.033-0.886,0.471-1.24,0.832
				c-1.042,1.065-2.021,2.199-3.119,3.202c-7.11,6.488-13.255,13.806-18.208,22.034c-2.579,4.284-4.925,8.742-6.077,13.743
				c-1.036,4.496-2.196,8.94-2.102,13.602c0.046,2.266,0.311,4.519,0.435,6.765c0.276,4.968,2.411,9.317,3.944,13.868
				c0.845,2.51,2.78,4.401,4.206,6.581c1.655,2.529,3.86,4.524,6.335,6.232c1.339,0.924,2.762,1.74,3.924,2.902
				c3.855,3.856,8.633,5.871,13.825,7.219c1.687,0.438,3.362,0.458,5.037,0.637c4.435,0.475,8.639,2.028,13.162,2.287
				c6.616,0.379,13.218,0.99,19.846,0.659c2.758-0.138,5.508-0.441,8.208-1.273c2.191-0.676,4.197-1.826,6.41-2.356
				c2.164-0.518,4.014-1.529,5.601-3.017c1.406-1.319,2.935-2.44,4.532-3.513c1.105-0.743,2.344-1.374,3.15-2.518
				c2.377-3.373,5.778-5.841,8.137-9.238c1.879-2.707,4.432-4.917,5.792-8.016c1.087-2.479,2.331-4.889,3.445-7.356
				c2.09-4.628,3.551-9.394,3.087-14.573c-0.176-1.971-0.088-3.942-0.516-5.918c-0.83-3.826-1.505-7.641-2.815-11.39
				c-1.921-5.496-4.96-10.349-7.846-15.281c-2.739-4.68-5.915-9.112-9.042-13.552c-0.875-1.242-1.633-2.731-3.198-3.377
				C292.595,276.807,292.05,275.538,291.097,274.549z"/>
			<path style="fill:#EE4670;" d="M255.963,113.819c-4.565,0.016-7.91-3.855-7.911-9.156c-0.001-3.467,4.017-7.102,7.822-7.077
				c4.306,0.028,8.002,3.716,8.012,7.995C263.897,110.039,260.275,113.804,255.963,113.819z"/>
			<path style="fill:#EE426C;" d="M293.393,277.901c1.566,0.646,2.323,2.135,3.198,3.377c3.127,4.44,6.303,8.872,9.042,13.552
				c2.886,4.932,5.925,9.785,7.846,15.281c1.31,3.749,1.986,7.565,2.815,11.39c0.429,1.976,0.34,3.947,0.516,5.918
				c0.463,5.179-0.998,9.945-3.087,14.573c-1.114,2.468-2.358,4.877-3.445,7.356c-1.359,3.099-3.913,5.309-5.792,8.016
				c-2.358,3.397-5.76,5.865-8.137,9.238c-0.806,1.144-2.044,1.775-3.15,2.518c-1.597,1.073-3.126,2.194-4.532,3.513
				c-1.587,1.488-3.436,2.499-5.601,3.017c-2.212,0.53-4.218,1.68-6.41,2.356c-2.699,0.832-5.45,1.135-8.208,1.273
				c-6.628,0.331-13.23-0.28-19.846-0.659c-4.523-0.259-8.727-1.811-13.162-2.287c-1.675-0.18-3.35-0.199-5.037-0.637
				c-5.192-1.348-9.971-3.364-13.825-7.219c-1.162-1.162-2.584-1.978-3.924-2.902c-2.476-1.709-4.68-3.703-6.335-6.232
				c-1.427-2.18-3.361-4.071-4.206-6.581c-1.533-4.551-3.668-8.9-3.944-13.868c-0.125-2.245-0.39-4.499-0.435-6.765
				c-0.094-4.662,1.066-9.106,2.102-13.602c1.152-5,3.499-9.459,6.077-13.743c4.953-8.229,11.098-15.546,18.208-22.034
				c1.099-1.003,2.078-2.136,3.119-3.202c0.353-0.361,0.619-0.865,1.239-0.832c1.257,0.73,2.458,1.587,3.851,2.037
				c7.961,2.572,16.154,3.874,24.49,4.254c4.92,0.225,9.823-0.107,14.711-0.793c4.874-0.684,9.684-1.624,14.405-3.006
				C288.567,280.439,291.064,279.355,293.393,277.901z M273.585,335.143c-8.053,0.132-12.12,5.496-12.206,12.137
				c-0.095,7.332,4.528,11.77,11.49,11.957c6.584,0.177,12.576-5.364,12.576-11.837
				C285.445,340.815,279.958,334.892,273.585,335.143z M243.785,366.128c-0.129-0.993-0.769-1.914-1.944-2.46
				c-1.596-0.742-3.283-1.226-4.957-1.747c-1.533-0.477-3.233-0.712-4.386-1.905c-2.593-2.685-5.951-4.421-8.374-7.392
				c-3.112-3.817-5.92-7.755-7.617-12.365c-1.792-4.87-2.662-9.961-2.953-15.147c-0.048-0.849-0.19-1.695-0.318-2.538
				c-0.065-0.428-0.2-0.878-0.712-0.951c-0.563-0.08-0.853,0.335-1.075,0.764c-0.151,0.293-0.276,0.611-0.346,0.932
				c-1.168,5.397-1.492,10.848,0.053,16.179c2.148,7.412,5.888,14.055,10.916,19.897c2.154,2.503,4.855,4.56,7.628,6.303
				c3.224,2.027,7.163,2.365,10.796,3.408C242.151,369.58,243.807,368.032,243.785,366.128z M247.096,333.731
				c4.433,0.414,8.264-4.509,8.138-8.622c-0.142-4.66-3.373-8.406-8.232-8.38c-4.836,0.026-8.197,3.571-8.18,7.945
				C238.844,330.066,242.067,333.691,247.096,333.731z M304.944,334.585c3.09,0.186,4.432-1.817,4.644-4.86
				c0.159-2.282-2.575-4.429-5.249-4.57c-2.841-0.151-4.155,2.407-4.366,5.387C299.803,332.935,301.912,334.563,304.944,334.585z
				 M285.939,314.075c-2.834,0.004-4.787,1.956-4.793,4.794c-0.007,2.721,1.739,4.606,4.269,4.608
				c2.944,0.003,5.157-2.235,5.142-5.198C290.544,315.707,288.747,314.071,285.939,314.075z M256.097,305.81
				c0.001,1.937,1.3,3.169,3.327,3.155c2.045-0.015,3.837-1.8,3.784-3.771c-0.042-1.56-1.728-3.039-3.488-3.061
				C257.729,302.108,256.096,303.765,256.097,305.81z M285.416,295.734c0.006,1.519,1.353,2.942,2.811,2.97
				c1.801,0.034,2.92-1.15,2.901-3.073c-0.018-1.843-1.097-2.922-2.907-2.907C286.453,292.74,285.409,293.861,285.416,295.734z
				 M254.142,371.22c1.237-0.019,2.124-0.552,2.301-1.835c0.168-1.221-0.545-1.952-1.634-2.334c-1.235-0.432-2.495-0.46-3.767-0.144
				c-0.648,0.161-1.116,0.516-1.316,1.157c-0.231,0.738,0.144,1.296,0.652,1.751C251.44,370.768,252.709,371.219,254.142,371.22z
				 M225.349,309.858c0.007,1.399,0.553,1.992,1.801,1.955c1.166-0.035,2.209-1.161,2.166-2.339
				c-0.036-0.989-1.068-1.967-2.042-1.934C226.165,307.578,225.343,308.568,225.349,309.858z M269.359,318.361
				c-0.957,0.007-1.855,1.006-1.871,2.08c-0.018,1.24,0.659,1.919,1.896,1.901c1.076-0.016,2.106-1.042,2.064-2.057
				C271.408,319.299,270.38,318.353,269.359,318.361z"/>
			<path style="fill:#F39AB0;" d="M230.235,276.469c3.194-1.854,6.556-3.333,10.025-4.592c5.805-2.107,11.774-3.402,17.929-3.964
				c8.184-0.747,16.103,0.504,23.89,2.891c3.122,0.957,6.044,2.42,9.018,3.745c0.953,0.989,1.498,2.258,2.296,3.353
				c-2.329,1.453-4.827,2.538-7.455,3.307c-4.721,1.381-9.531,2.321-14.405,3.006c-4.888,0.686-9.791,1.018-14.711,0.793
				c-8.336-0.381-16.529-1.683-24.49-4.254c-1.393-0.45-2.594-1.307-3.851-2.037C228.797,277.757,229.814,277.346,230.235,276.469z
				 M260.964,272.252c-1.815-0.011-3.453,1.588-3.462,3.381c-0.009,1.898,1.158,3.09,3.067,3.131
				c1.805,0.039,3.495-1.627,3.464-3.417C264.004,273.642,262.636,272.262,260.964,272.252z"/>
			<path style="fill:#BE264D;" d="M273.585,335.143c6.373-0.251,11.86,5.671,11.86,12.257c0,6.473-5.992,12.014-12.576,11.837
				c-6.962-0.187-11.586-4.625-11.49-11.957C261.465,340.639,265.533,335.276,273.585,335.143z"/>
			<path style="fill:#FCF7F9;" d="M243.785,366.128c0.022,1.905-1.635,3.452-3.288,2.977c-3.632-1.043-7.571-1.381-10.796-3.408
				c-2.773-1.744-5.474-3.8-7.628-6.303c-5.028-5.842-8.768-12.484-10.916-19.897c-1.545-5.331-1.221-10.782-0.053-16.179
				c0.07-0.321,0.194-0.639,0.346-0.932c0.222-0.429,0.512-0.844,1.075-0.764c0.512,0.073,0.647,0.523,0.712,0.951
				c0.128,0.843,0.27,1.689,0.318,2.538c0.291,5.186,1.161,10.277,2.953,15.147c1.696,4.61,4.505,8.548,7.617,12.365
				c2.423,2.972,5.781,4.707,8.374,7.392c1.152,1.193,2.853,1.428,4.386,1.905c1.674,0.521,3.36,1.005,4.957,1.747
				C243.017,364.213,243.656,365.135,243.785,366.128z"/>
			<path style="fill:#BE264D;" d="M247.096,333.731c-5.028-0.04-8.252-3.666-8.274-9.057c-0.018-4.375,3.344-7.92,8.18-7.945
				c4.859-0.026,8.09,3.72,8.232,8.38C255.359,329.222,251.529,334.145,247.096,333.731z"/>
			<path style="fill:#BE264D;" d="M304.944,334.585c-3.031-0.022-5.141-1.65-4.971-4.043c0.211-2.98,1.525-5.538,4.366-5.387
				c2.674,0.142,5.407,2.289,5.249,4.57C309.375,332.768,308.034,334.771,304.944,334.585z"/>
			<path style="fill:#BE264D;" d="M285.939,314.075c2.807-0.004,4.605,1.632,4.618,4.204c0.015,2.963-2.199,5.201-5.142,5.198
				c-2.53-0.002-4.276-1.887-4.269-4.608C281.153,316.031,283.105,314.079,285.939,314.075z"/>
			<path style="fill:#BE264D;" d="M256.097,305.81c-0.001-2.045,1.632-3.702,3.624-3.677c1.76,0.022,3.446,1.502,3.488,3.061
				c0.053,1.97-1.739,3.756-3.784,3.771C257.397,308.979,256.098,307.747,256.097,305.81z"/>
			<path style="fill:#BE264D;" d="M285.416,295.734c-0.007-1.874,1.037-2.994,2.805-3.009c1.81-0.015,2.889,1.064,2.907,2.907
				c0.019,1.922-1.1,3.107-2.901,3.073C286.768,298.677,285.421,297.253,285.416,295.734z"/>
			<path style="fill:#FCF7F9;" d="M254.142,371.22c-1.433,0-2.701-0.452-3.766-1.405c-0.508-0.455-0.882-1.013-0.652-1.751
				c0.2-0.641,0.668-0.995,1.316-1.157c1.273-0.316,2.532-0.289,3.767,0.144c1.09,0.382,1.803,1.112,1.634,2.334
				C256.266,370.667,255.379,371.2,254.142,371.22z"/>
			<path style="fill:#BE264D;" d="M225.349,309.858c-0.006-1.29,0.816-2.28,1.925-2.318c0.974-0.033,2.006,0.945,2.042,1.934
				c0.043,1.178-1,2.304-2.166,2.339C225.902,311.851,225.356,311.258,225.349,309.858z"/>
			<path style="fill:#BE264D;" d="M269.359,318.361c1.021-0.008,2.049,0.938,2.089,1.923c0.042,1.015-0.988,2.042-2.064,2.057
				c-1.237,0.018-1.914-0.661-1.896-1.901C267.504,319.367,268.402,318.369,269.359,318.361z"/>
			<path style="fill:#76FBDD;" d="M262.581,201.611c0.738-1.801,0.495-3.729,0.551-5.579c0.169-5.639-0.038-11.292,0.195-16.927
				c0.212-5.117-0.211-10.217-0.073-15.325c0.01-0.379-0.044-0.772,0.039-1.134c0.132-0.582,0.475-1.097,1.134-1.048
				c0.549,0.042,0.892,0.482,1.02,1.031c0.042,0.182,0.043,0.378,0.037,0.566c-0.204,5.737,0.342,11.451,0.628,17.169
				c0.229,4.573,0.652,9.146,0.955,13.713c0.373,5.611,0.966,11.231,0.738,16.876c-0.103,2.561,0.715,5.077,0.47,7.635
				c-0.234,2.439-0.945,3.214-2.693,3.266c-1.291,0.038-2.055-0.618-2.359-1.803c-0.317-1.236-0.487-2.498-0.505-3.783
				c-0.062-4.502,0.139-9.007-0.109-13.505C262.599,202.382,262.59,201.997,262.581,201.611z"/>
			<path style="fill:#EE426C;" d="M255.595,258.329c-3.793,0.006-7.097-2.899-7.041-6.308c0.087-5.228,2.07-8.243,7.194-8.505
				c3.918-0.201,7.083,3.212,7.117,7.28C262.899,254.923,259.618,258.322,255.595,258.329z"/>
			<path style="fill:#EE4670;" d="M262.581,201.611c0.009,0.386,0.018,0.771,0.027,1.154c-0.57,2.175-1.484,4.075-3.772,4.97
				c-1.896,0.741-3.548,0.283-4.997-0.993c-1.582-1.392-2.315-5.211-1.453-7.138c0.892-1.991,2.632-3.127,4.685-3.059
				c2.224,0.074,4.226,1.517,4.987,3.599C262.236,200.631,262.407,201.122,262.581,201.611z"/>
			<path style="fill:#EE4670;" d="M268.337,237.761c0.001,2.069-1.675,3.92-3.52,3.887c-1.892-0.033-3.469-1.679-3.447-3.598
				c0.023-2.026,1.627-3.622,3.603-3.585C266.877,234.5,268.337,235.93,268.337,237.761z"/>
			<path style="fill:#EE4670;" d="M269.693,134.463c-1.932,0.034-3.28-1.228-3.326-3.114c-0.048-1.995,1.149-3.288,3.072-3.319
				c1.918-0.03,3.376,1.287,3.401,3.072C272.865,132.932,271.46,134.432,269.693,134.463z"/>
			<path style="fill:#EE4670;" d="M240.834,72.048c-4.06,0.072-6.893-2.582-6.99-6.545c-0.102-4.193,2.414-6.911,6.456-6.975
				c4.032-0.064,7.096,2.704,7.147,6.456C247.5,68.83,244.548,71.983,240.834,72.048z"/>
			<path style="fill:#76FBDD;" d="M258.442,143.833c-1.507-0.357-3.348-0.732-5.148-1.25c-0.649-0.187-0.934-0.82-0.921-1.585
				c0.018-1.051,0.813-1.403,1.523-1.618c1.843-0.56,3.745-0.306,5.601,0.001c1.068,0.177,2.085,1.643,1.931,2.484
				C261.193,143.142,260.22,143.867,258.442,143.833z"/>
			<path style="fill:#EE4670;" d="M254.695,166.131c-0.022,2.22-1.059,3.412-2.928,3.364c-1.76-0.045-3.185-1.496-3.133-3.19
				c0.057-1.847,1.645-3.589,3.225-3.537C253.617,162.825,254.715,164.126,254.695,166.131z"/>
			<path style="fill:#EE4670;" d="M283.695,84.131c-0.022,2.22-1.059,3.412-2.928,3.364c-1.759-0.045-3.185-1.496-3.133-3.19
				c0.057-1.847,1.645-3.589,3.225-3.537C282.617,80.825,283.715,82.126,283.695,84.131z"/>
			<path style="fill:#76FBDD;" d="M267.173,154.545c-0.011,0.787,0.261,1.63-0.175,2.357c-0.521,0.869-1.294,1.34-2.373,1.165
				c-1.177-0.191-1.757-1.098-1.841-2.051c-0.153-1.715-0.336-3.469,0.39-5.163c0.344-0.803,0.85-1.259,1.663-1.245
				c0.853,0.015,1.544,0.411,1.784,1.322C266.933,152.114,267.371,153.278,267.173,154.545z"/>
			<path style="fill:#EE4670;" d="M252.987,230.276c-0.026,1.31-0.997,2.367-2.148,2.339c-1.156-0.028-2.26-1.199-2.201-2.336
				c0.063-1.219,1.122-2.233,2.321-2.221C252.187,228.069,253.012,228.972,252.987,230.276z"/>
			<path style="fill:#EE4670;" d="M260.964,272.252c1.672,0.011,3.04,1.39,3.069,3.095c0.03,1.79-1.659,3.456-3.464,3.417
				c-1.91-0.042-3.077-1.233-3.067-3.131C257.511,273.84,259.149,272.24,260.964,272.252z"/>
			<path style="fill:#FCFDFD;" d="M275,126c2.53-1.265,8,0,9,2s-2,6-5,6s-1-2-1-4S273,127,275,126z"/>
		</g>
		<g>
			<path style="fill:#76FBDD;" d="M340,450.06c-9.061,0-18.123,0.071-27.183-0.021c-8.431-0.085-16.863-0.259-25.288-0.572
				c-2.674-0.099-5.163,0.879-7.841,0.729c-4.004-0.224-7.535-1.641-10.784-3.781c-5.261-3.466-8.909-8.329-11.199-14.135
				c-0.959-2.432-1.506-5.055-1.649-7.714c-0.314-5.851,0.909-11.336,3.465-16.631c2.919-6.049,5.449-12.284,8.318-18.358
				c2.319-4.909,4.503-9.877,6.782-14.803c2.615-5.653,5.25-11.296,7.894-16.936c2.599-5.545,5.307-11.041,7.806-16.63
				c2.606-5.826,5.244-11.634,8.161-17.309c1.071-2.083,2.263-4.106,3.462-6.119c0.413-0.693,0.511-1.384,0.511-2.153
				c-0.006-9.915-0.035-19.83,0.03-29.744c0.017-2.643,0.321-5.284,0.516-7.925c0.067-0.902-0.077-1.303-1.181-1.576
				c-6.548-1.618-11.439-5.423-13.376-11.997c-1.11-3.766-0.248-7.563,2.431-10.752c2.384-2.838,5.327-4.826,8.949-5.439
				c1.926-0.326,3.917-0.661,5.878-0.67c14.326-0.064,28.654-0.117,42.979,0.028c2.611,0.026,5.317,0.825,7.503,2.423
				c2.983,2.182,5.597,4.761,6.764,8.437c1.377,4.339,0.56,8.31-2.278,11.798c-2.245,2.759-5.244,4.484-8.601,5.598
				c-0.045,0.015-0.092,0.023-0.139,0.027c-0.934,0.085-2.131-0.129-2.675,0.613c-0.602,0.82-0.228,2.032-0.13,3.047
				c0.784,8.17,0.498,16.375,0.866,24.555c0.158,3.508,0.079,7.008,0.193,10.51c0.009,0.284,0.091,0.611-0.017,0.847
				c-1.193,2.628,0.718,4.384,1.737,6.41c1.928,3.831,3.838,7.671,5.686,11.541c3.029,6.343,6.045,12.693,8.988,19.076
				c3.865,8.383,7.747,16.76,11.44,25.218c2.12,4.856,4.375,9.643,6.623,14.438c3.503,7.473,7.008,14.945,10.404,22.467
				c0.584,1.293,0.214,2.861,0.667,4.3c1.152,3.659,0.303,7.341-0.651,10.849c-0.661,2.432-1.752,4.85-3.389,6.902
				c-2.149,2.695-4.356,5.336-6.895,7.682c-2.866,2.649-6.357,4.08-10.005,5.252c-1.377,0.442-2.742,0.607-4.174,0.604
				c-10.199-0.021-20.399-0.011-30.598-0.011C340,450.111,340,450.086,340,450.06z M366.193,368.724
				c-1.528-3.365-3.047-6.734-4.585-10.095c-2.675-5.846-5.412-11.663-8.048-17.528c-2.799-6.228-5.682-12.411-8.176-18.778
				c-1.349-3.443-2.112-6.829-2.023-10.554c0.225-9.377-0.111-18.764,0.591-28.135c0.159-2.121,0.18-4.252,0.563-6.352
				c0.162-0.891-0.022-1.605-0.691-2.313c-1.396-1.48-1.184-2.918,0.422-4.21c0.965-0.776,2.121-0.691,3.223-0.791
				c4.774-0.434,8.523-2.406,9.907-6.761c1.264-3.977-2.22-8.949-6.386-8.966c-13.513-0.057-27.03,0.324-40.536-0.314
				c-2.032-0.096-4.068-0.158-6.098-0.286c-0.938-0.059-1.791-0.554-2.795,0.076c-2.085,1.31-4.218,2.58-5.718,4.555
				c-2.176,2.866-2.81,6.678,0.375,9.514c2.4,2.137,5.206,3.206,8.371,3.638c2.003,0.274,3.958-0.068,5.934-0.011
				c1.307,0.038,2.539,1.002,2.694,2.062c0.213,1.46-0.487,2.495-1.89,3.044c-1.043,0.408-2.1,0.582-3.193,0.502
				c-0.949-0.069-1.28,0.305-1.177,1.231c0.203,1.832,0.433,3.665,0.522,5.504c0.229,4.728,0.469,9.458,0.554,14.19
				c0.111,6.213,0.082,12.429,0.101,18.643c0.002,0.566,0.055,1.194-0.161,1.687c-1.162,2.651-2.298,5.323-3.636,7.887
				c-3.485,6.678-6.673,13.499-9.829,20.334c-3.673,7.956-7.211,15.974-10.807,23.965c-0.132,0.972-0.785,1.731-1.082,2.635
				c-3.297,6.421-6.12,13.067-9.212,19.585c-3.021,6.366-5.828,12.835-8.913,19.169c-2.165,4.445-3.247,8.866-2.073,13.848
				c0.998,4.232,2.52,8.154,5.336,11.427c3.705,4.307,8.158,7.166,14.228,6.775c4.444-0.287,8.91-0.28,13.367-0.303
				c5.074-0.026,10.15,0.131,15.222,0.14c18.926,0.03,37.848,0.352,56.768,0.755c3.684,0.078,6.775-1.176,9.826-2.84
				c2.97-1.619,5.092-4.197,7.333-6.658c3.114-3.42,5.085-7.324,5.672-11.919c0.089-0.694,0.213-1.351,0.155-2.088
				c-0.203-2.601-1.911-4.525-2.885-6.766c-2.246-5.172-4.662-10.271-7.046-15.382c-2.598-5.57-5.015-11.221-7.75-16.73
				c-1.486-2.994-3.426-5.786-4.28-9.08C367.597,371.617,367.113,370.06,366.193,368.724z"/>
			<path style="fill:#FFCE07;" d="M334.578,241.635c0.353-0.435,0.937-0.706,0.706-1.339c-0.215-0.588-0.803-0.391-1.237-0.475
				c-2.258-0.438-4.001-1.582-4.722-3.82c-0.753-2.336-0.212-4.462,1.408-6.347c2.093-2.435,4.937-3.416,7.875-4.261
				c0.458-0.132,1.25-0.052,1.137-0.768c-0.115-0.729-0.868-0.78-1.495-0.724c-0.611,0.055-1.227,0.15-1.82,0.306
				c-5.486,1.438-8.759-2.847-9.41-6.649c-0.791-4.616,1.725-8.598,6.568-10.504c1.101-0.433,2.229-0.795,3.339-1.206
				c0.774-0.286,0.876-0.76,0.385-1.42c-0.812-1.09-1.943-1.796-3.04-2.531c-1.828-1.226-3.451-2.638-4.669-4.503
				c-3.008-4.605-0.429-10.983,5.104-12.576c1.723-0.496,3.445-0.675,5.168-0.031c0.395,0.148,0.806,0.315,1.131,0.573
				c0.46,0.364,0.801,0.862,0.524,1.487c-0.248,0.559-0.774,0.678-1.324,0.587c-1.193-0.197-2.369-0.113-3.524,0.199
				c-1.841,0.498-3.034,1.662-3.54,3.523c-0.488,1.797,0.241,3.093,1.574,4.234c1.124,0.963,2.422,1.656,3.612,2.511
				c2.043,1.469,3.68,3.246,4.55,5.666c0.922,2.564,0.215,5.031-1.982,6.675c-1.196,0.895-2.571,1.403-3.983,1.827
				c-0.867,0.26-1.699,0.588-2.415,1.164c-1.059,0.852-1.555,1.802-0.962,3.217c0.565,1.35,1.572,1.537,2.776,1.363
				c3.156-0.456,5.657,0.669,7.997,2.776c3.549,3.195,1.357,8.942-1.949,10.217c-1.589,0.613-3.23,1.091-4.842,1.645
				c-0.48,0.165-1.187,0.26-1.159,0.863c0.025,0.535,0.734,0.453,1.16,0.593c3.184,1.048,4.579,3.809,3.212,6.371
				c-1.04,1.948-2.749,2.567-4.761,1.662C335.526,241.743,335.053,241.773,334.578,241.635z"/>
			<path style="fill:#FFCE07;" d="M313.018,242.846c-0.495-0.049-0.913-0.072-1.325-0.135c-3.596-0.549-4.882-3.203-3.073-6.425
				c1.253-2.232,3.267-3.63,5.483-4.783c0.627-0.326,1.291-0.643,1.513-1.408c0.415-1.427-0.221-2.44-1.735-2.63
				c-1.604-0.201-3.194-0.444-4.706-1.033c-3.201-1.246-5.1-3.595-5.464-6.992c-0.38-3.554,1.309-6.139,4.353-7.806
				c2.387-1.308,5.027-1.936,7.694-2.425c0.826-0.151,1.78-0.174,2.092-1.182c0.33-1.065-0.472-1.654-1.111-2.275
				c-1.485-1.443-3.362-2.27-5.138-3.262c-3.289-1.838-4.543-4.942-3.526-8.563c0.21-0.747,0.54-1.416,1.112-1.948
				c2.12-1.971,4.584-3.169,7.514-3.262c0.959-0.03,1.903,0.108,2.674,0.763c0.544,0.461,0.825,1.051,0.643,1.77
				c-0.18,0.713-0.729,0.886-1.401,0.958c-1.628,0.174-3.134,0.717-4.473,1.676c-1.568,1.123-1.514,2.479,0.177,3.417
				c1.695,0.94,3.54,1.619,5.062,2.861c2.268,1.85,4.375,3.806,4.682,6.984c0.368,3.804-2.453,7.623-6.175,8.363
				c-1.996,0.397-4.029,0.661-5.956,1.34c-0.807,0.285-1.871,0.48-1.732,1.721c0.131,1.162,1.037,1.468,2.018,1.661
				c1.485,0.291,2.989,0.523,4.445,0.925c2.891,0.799,4.782,2.633,5.345,5.648c0.63,3.376,0.691,6.648-2.199,9.178
				c-1.353,1.184-3.036,1.711-4.727,2.199c-0.498,0.144-1.005,0.286-1.469,0.51C311.485,239.72,311.231,241.318,313.018,242.846z"/>
			<path style="fill:#FFCE07;" d="M368.37,373.028c0.854,3.295,2.794,6.087,4.28,9.08c2.735,5.509,5.152,11.161,7.75,16.73
				c2.384,5.111,4.8,10.21,7.046,15.382c0.974,2.241,2.681,4.165,2.885,6.766c0.058,0.737-0.067,1.394-0.155,2.088
				c-0.587,4.595-2.558,8.499-5.672,11.919c-2.241,2.461-4.363,5.039-7.333,6.658c-3.052,1.664-6.142,2.918-9.826,2.84
				c-18.92-0.403-37.841-0.724-56.768-0.755c-5.072-0.008-10.148-0.165-15.222-0.14c-4.457,0.023-8.923,0.017-13.367,0.303
				c-6.07,0.391-10.523-2.468-14.228-6.775c-2.816-3.273-4.338-7.195-5.336-11.427c-1.174-4.982-0.093-9.404,2.073-13.848
				c3.085-6.334,5.893-12.802,8.913-19.169c3.093-6.518,5.915-13.163,9.212-19.585c0.692-0.245,1.288,0.013,1.89,0.33
				c1.508,0.794,3.031,1.569,4.659,2.085c9.232,2.928,18.776,3.71,28.376,3.995c3.637,0.108,7.28,0.026,10.926-0.186
				c4.246-0.246,8.488-0.541,12.71-0.99c6.999-0.743,13.878-2.201,20.723-3.837C364.051,373.979,366.108,373.036,368.37,373.028z
				 M357.938,427.648c1.379,0.197,2.848-0.323,4.302-0.904c3.674-1.469,6.96-5.997,6.765-9.703
				c-0.323-6.13-5.424-10.211-11.774-8.397c-2.365,0.676-4.086,2.288-5.761,3.974c-2.662,2.68-3.33,6.256-1.827,9.918
				C350.957,425.735,353.965,427.643,357.938,427.648z M272.565,414.511c-0.005,7.721,2.944,12.821,8.642,16.325
				c3.17,1.949,6.693,2.612,10.377,2.35c2.114-0.15,3.477-1.618,3.393-3.468c-0.082-1.808-1.475-3.028-3.579-3.097
				c-0.852-0.028-1.713,0.074-2.559,0.002c-3.51-0.3-6.351-1.738-8.199-4.875c-1.814-3.081-2.249-6.401-1.808-9.882
				c0.373-2.937,1.236-5.734,2.457-8.428c0.348-0.768,0.502-1.595-0.279-2.202c-0.78-0.606-1.523-0.266-2.196,0.276
				c-0.258,0.208-0.506,0.431-0.737,0.668C274.464,405.88,272.638,410.323,272.565,414.511z M297.01,401.218
				c-0.09,4.122,2.618,6.376,6.319,6.458c3.628,0.08,6.759-3.269,6.781-6.993c0.021-3.628-2.619-6.418-6.187-6.324
				C300.572,394.448,297.007,397.463,297.01,401.218z M339.638,396.902c3.469,0.027,6.053-2.347,6.056-5.565
				c0.003-3.098-2.453-5.517-5.626-5.541c-2.987-0.023-5.534,2.696-5.384,6.104C334.814,394.855,336.224,396.788,339.638,396.902z
				 M305.69,430.684c-0.03-1.705-1.956-3.494-3.7-3.437c-1.569,0.052-3.127,1.398-3.141,2.716c-0.019,1.694,1.955,3.496,3.828,3.496
				C304.278,433.459,305.716,432.134,305.69,430.684z M321.699,414.857c-1.852,0.065-3.131,1.561-3.048,3.567
				c0.062,1.487,1.413,2.711,2.935,2.657c1.489-0.053,3.033-1.798,3.017-3.41C324.589,416.329,323.022,414.811,321.699,414.857z
				 M368.077,396.614c1.388-0.003,2.63-1.149,2.628-2.425c-0.002-1.235-1.2-2.396-2.492-2.416c-1.641-0.025-2.625,0.915-2.591,2.477
				C365.65,395.557,366.751,396.617,368.077,396.614z M375.583,427.085c0.033-1.584-0.843-2.441-2.376-2.599
				c-1.543-0.159-2.559,1.197-2.675,2.363c-0.122,1.225,1.112,2.448,2.414,2.494C374.253,429.388,375.558,428.271,375.583,427.085z
				 M327.201,401.178c0.037-1.357-0.692-1.878-1.735-1.961c-0.977-0.078-1.98,1.006-1.948,2.037c0.038,1.22,0.915,1.553,1.923,1.607
				C326.629,402.925,327.213,402.274,327.201,401.178z"/>
			<path style="fill:#FFE161;" d="M283.704,370.461c3.621-2.272,7.419-4.175,11.51-5.451c5.746-1.792,11.644-2.844,17.586-3.755
				c4.084-0.626,8.192-0.926,12.29-0.968c4.388-0.045,8.787,0.22,13.173,0.675c5.708,0.593,11.318,1.604,16.838,3.151
				c3.884,1.088,7.617,2.54,11.092,4.612c0.92,1.336,1.404,2.893,2.176,4.304c-2.261,0.009-4.318,0.951-6.464,1.465
				c-6.845,1.637-13.723,3.094-20.723,3.837c-4.222,0.448-8.464,0.744-12.71,0.99c-3.646,0.211-7.289,0.293-10.926,0.186
				c-9.599-0.284-19.144-1.066-28.376-3.995c-1.629-0.517-3.151-1.291-4.659-2.085c-0.602-0.317-1.198-0.575-1.89-0.33
				C282.919,372.191,283.572,371.433,283.704,370.461z"/>
			<path style="fill:#EFA003;" d="M357.938,427.648c-3.973-0.006-6.981-1.913-8.295-5.113c-1.504-3.661-0.836-7.238,1.827-9.918
				c1.675-1.686,3.396-3.298,5.761-3.974c6.35-1.814,11.452,2.267,11.774,8.397c0.195,3.706-3.09,8.234-6.765,9.703
				C360.786,427.326,359.317,427.845,357.938,427.648z"/>
			<path style="fill:#FCF7F9;" d="M272.565,414.511c0.073-4.187,1.899-8.631,5.511-12.334c0.231-0.237,0.479-0.46,0.737-0.668
				c0.673-0.542,1.415-0.882,2.196-0.276c0.782,0.607,0.627,1.434,0.279,2.202c-1.221,2.694-2.085,5.491-2.457,8.428
				c-0.441,3.481-0.006,6.801,1.808,9.882c1.847,3.137,4.688,4.575,8.199,4.875c0.847,0.072,1.707-0.03,2.559-0.002
				c2.104,0.069,3.498,1.289,3.579,3.097c0.084,1.851-1.279,3.318-3.393,3.468c-3.684,0.262-7.207-0.4-10.377-2.35
				C275.509,427.332,272.56,422.231,272.565,414.511z"/>
			<path style="fill:#EFA003;" d="M297.01,401.218c-0.003-3.754,3.562-6.77,6.913-6.859c3.569-0.094,6.209,2.695,6.187,6.324
				c-0.022,3.724-3.153,7.074-6.781,6.993C299.628,407.594,296.919,405.34,297.01,401.218z"/>
			<path style="fill:#EFA003;" d="M339.638,396.902c-3.414-0.114-4.824-2.046-4.955-5.002c-0.151-3.408,2.397-6.127,5.384-6.104
				c3.173,0.024,5.629,2.443,5.626,5.541C345.691,394.554,343.107,396.929,339.638,396.902z"/>
			<path style="fill:#FCF7F9;" d="M305.69,430.684c0.026,1.45-1.413,2.775-3.013,2.775c-1.873,0-3.847-1.802-3.828-3.496
				c0.015-1.318,1.572-2.665,3.141-2.716C303.734,427.19,305.66,428.979,305.69,430.684z"/>
			<path style="fill:#EFA003;" d="M321.699,414.857c1.323-0.046,2.89,1.472,2.904,2.814c0.016,1.612-1.527,3.358-3.017,3.41
				c-1.522,0.054-2.873-1.17-2.935-2.657C318.568,416.418,319.847,414.922,321.699,414.857z"/>
			<path style="fill:#EFA003;" d="M368.077,396.614c-1.326,0.003-2.427-1.057-2.456-2.364c-0.034-1.561,0.95-2.502,2.591-2.477
				c1.293,0.02,2.491,1.181,2.492,2.416C370.707,395.465,369.465,396.61,368.077,396.614z"/>
			<path style="fill:#EFA003;" d="M375.583,427.085c-0.025,1.187-1.33,2.304-2.638,2.258c-1.302-0.045-2.536-1.269-2.414-2.494
				c0.117-1.166,1.133-2.522,2.675-2.363C374.74,424.643,375.616,425.501,375.583,427.085z"/>
			<path style="fill:#EFA003;" d="M327.201,401.178c0.012,1.096-0.572,1.747-1.76,1.683c-1.008-0.054-1.885-0.387-1.923-1.607
				c-0.032-1.031,0.971-2.115,1.948-2.037C326.509,399.3,327.238,399.821,327.201,401.178z"/>
			<path style="fill:#76FBDD;" d="M334.905,307.327c-0.029-3.74-0.03-7.473,0.484-11.197c0.136-0.983,0.408-1.809,1.353-1.815
				c0.917-0.006,1.448,0.903,1.485,1.772c0.131,3.07,0.849,6.097,0.647,9.191c-0.187,2.85,0.526,5.649,0.523,8.49
				c-0.001,0.567,0.007,1.121-0.252,1.665c-0.506,1.06-1.276,1.708-2.462,1.392c-1.075-0.286-1.775-1.031-1.777-2.242
				C334.903,312.164,334.905,309.746,334.905,307.327z"/>
			<path style="fill:#76FBDD;" d="M331.977,271.624c0.815-0.063,1.597,0.152,2.389,0.271c1.191,0.178,2.171,1.195,2.147,2.227
				c-0.021,0.852-1.217,2.123-2.237,2.009c-3.487-0.391-6.981-0.081-10.463-0.283c-0.764-0.044-1.405-0.458-1.474-1.422
				c-0.07-0.988,0.445-1.558,1.268-1.797c1.164-0.338,2.309-0.784,3.579-0.689C328.79,272.059,330.383,271.769,331.977,271.624z"/>
			<path style="fill:#76FBDD;" d="M333.802,286.3c0.178-1.548,0.309-3.24,0.589-4.907c0.14-0.834,0.54-1.702,1.588-1.719
				c0.892-0.015,1.507,0.364,1.901,1.332c0.815,1.999,1.205,4.058,1.193,6.178c-0.01,1.683-1.129,2.891-2.431,2.917
				c-1.402,0.028-2.705-1.327-2.837-2.959C333.786,286.908,333.802,286.671,333.802,286.3z"/>
			<path style="fill:#FCFDFD;" d="M345,258c2.53-1.265,8,0,9,2s-2,6-5,6s-1-2-1-4S343,259,345,258z"/>
			<path style="fill:#FCFDFD;" d="M343.172,340.347c1.829-0.588,6.16,6.927,10.637,15.078c4.842,8.816,9.686,18.375,7.022,19.232
				c-2.409,0.774-6.585-6.39-10.864-14.375C345.14,351.273,340.454,341.22,343.172,340.347z"/>
			<circle style="fill:#FCFDFD;" cx="364.5" cy="381.5" r="2.5"/>
		</g>
		<g>
			<circle style="fill:#9A74F0;" cx="160.5" cy="270.5" r="5.5"/>
			<path style="fill:#75FBDE;" d="M144.043,294.122c0-4.934-0.134-9.872,0.034-14.8c0.204-5.963,0.558-11.92,0.561-17.891
				c0-0.836,0.299-1.671,0.446-2.509c0.171-0.974-0.092-1.472-1.193-1.807c-4.2-1.279-7.561-3.685-9.542-7.75
				c-2.374-4.871-1.207-10.582,2.27-14.257c3.169-3.351,6.973-4.975,11.695-5.318c6.826-0.495,13.643-0.551,20.449-0.324
				c4.128,0.138,8.217-0.275,12.328-0.175c3.47,0.084,6.43,1.363,9.231,3.345c3.517,2.489,5.386,5.946,5.854,10.047
				c0.341,2.992-0.823,5.791-2.505,8.309c-2.435,3.645-5.792,5.927-10.089,6.805c-0.772,0.158-1.039,0.64-0.896,1.338
				c0.669,3.261,0.338,6.611,0.904,9.877c0.319,1.839,0.028,3.7,0.249,5.529c0.802,6.647,0.225,13.349,0.821,19.997
				c0.433,4.83,0.211,9.662,0.243,14.492c0.009,1.312,0.541,1.873,1.578,2.224c7.084,2.398,13.408,6.089,19.236,10.784
				c4.386,3.533,8.111,7.645,11.36,12.157c3.539,4.915,6.277,10.335,8.156,16.101c1.171,3.594,1.916,7.315,2.518,11.08
				c0.8,5.005,0.766,10.001,0.342,14.972c-0.292,3.433-1.066,6.848-2.018,10.21c-1.397,4.933-3.341,9.61-5.811,14.085
				c-3.683,6.673-8.549,12.426-14.332,17.301c-5.768,4.863-12.258,8.638-19.406,11.228c-6.308,2.285-12.725,3.773-19.479,4.048
				c-4.9,0.199-9.776,0.072-14.545-0.795c-8.889-1.616-17.154-4.915-24.7-10.025c-4.535-3.071-8.611-6.62-12.22-10.68
				c-4.287-4.823-7.687-10.261-10.312-16.172c-1.744-3.927-3.01-8.033-3.834-12.213c-1.292-6.55-1.788-13.169-0.847-19.866
				c0.367-2.613,0.791-5.225,1.401-7.762c0.806-3.353,2.042-6.606,3.461-9.782c3.187-7.135,7.498-13.499,13.099-18.922
				c5.864-5.678,12.618-10.041,20.319-12.861c1.265-0.463,2.523-0.953,3.811-1.346c1.052-0.321,1.383-0.887,1.368-2.022
				c-0.075-5.549-0.034-11.1-0.034-16.65C144.023,294.122,144.033,294.122,144.043,294.122z M110.569,354.72
				c-0.067,0.222-0.134,0.443-0.201,0.664c-0.359,0.342-0.503,0.777-0.603,1.254c-0.424,2.034-0.889,4.054-1.191,6.117
				c-1.133,7.743-0.851,15.421,1.383,22.918c2.665,8.939,7.246,16.84,13.904,23.422c5.722,5.656,12.377,9.901,19.963,12.678
				c4.647,1.701,9.42,2.943,14.33,3.302c8.128,0.593,16.149-0.069,23.961-2.706c6.86-2.316,13.028-5.793,18.502-10.483
				c5.288-4.531,9.636-9.848,12.961-15.998c2.605-4.817,4.447-9.904,5.494-15.261c1.097-5.615,1.237-11.299,0.565-16.969
				c-0.36-3.034-0.768-6.101-2.139-8.911c-0.146-1.119-0.226-2.263-1.165-3.082c-0.048-0.47,0.017-0.987-0.161-1.402
				c-3.207-7.487-7.63-14.129-13.674-19.652c-4.763-4.353-10.125-7.731-16.026-10.335c-2.05-0.905-4.34-1.249-6.18-2.643
				c-0.989-0.75-2.041-1.555-2.107-2.847c-0.127-2.5-0.385-4.99-0.54-7.476c-0.292-4.669-0.401-9.361-0.526-14.041
				c-0.222-8.295-0.19-16.602,0.001-24.899c0.067-2.917,0.414-5.844,0.447-8.778c0.008-0.728-0.016-1.177-0.98-1.321
				c-1.822-0.272-2.583-1.474-2.467-3.453c0.079-1.356,1.391-2.604,2.994-2.683c1.326-0.065,2.605-0.199,3.903-0.557
				c2.867-0.791,5.309-2.185,7.064-4.597c1.298-1.783,1.37-3.839,0.451-5.755c-1.745-3.634-5.081-4.989-8.792-5.054
				c-2.441-0.043-4.904,0.031-7.355-0.025c-4.735-0.109-9.493,0.294-14.2-0.357c-2.998-0.415-6.184-0.79-9.989-0.692
				c-2.195-0.098-4.872,2.518-6.502,4.791c-2.175,3.032-2.28,6.104,0.516,9.013c1.858,1.933,4.263,2.714,6.798,3.138
				c1.939,0.324,3.348,2.443,2.358,4.079c-0.732,1.211-0.743,2.248-0.703,3.612c0.154,5.252,0.536,10.499,0.609,15.746
				c0.154,11.192,0.056,22.387,0.061,33.581c0.001,1.185,0.133,2.387-0.026,3.549c-0.211,1.537-0.357,3.251-2.364,3.66
				c-1.758,0.359-3.351,1.149-4.995,1.813c-5.824,2.349-11.011,5.768-15.706,9.854c-3.085,2.685-5.986,5.61-8.475,8.919
				C115.672,342.294,112.295,348.075,110.569,354.72z"/>
			<path style="fill:#6D47C2;" d="M217.499,354.746c1.37,2.812,1.778,5.878,2.138,8.913c0.672,5.67,0.533,11.354-0.565,16.969
				c-1.047,5.357-2.89,10.444-5.494,15.261c-3.325,6.15-7.673,11.467-12.961,15.998c-5.473,4.69-11.642,8.167-18.502,10.483
				c-7.812,2.637-15.833,3.299-23.961,2.706c-4.91-0.358-9.683-1.6-14.33-3.302c-7.586-2.777-14.241-7.022-19.963-12.678
				c-6.659-6.582-11.24-14.482-13.904-23.422c-2.235-7.497-2.516-15.175-1.383-22.918c0.302-2.063,0.767-4.083,1.191-6.117
				c0.1-0.478,0.243-0.912,0.603-1.254c0.902-0.127,1.636,0.42,2.445,0.646c7.736,2.156,15.726,2.514,23.645,3.318
				c4.787,0.486,9.613,0.844,14.42,0.823c5.911-0.025,11.806,0.521,17.732,0.158c4.807-0.294,9.633-0.257,14.453-0.567
				c5.374-0.346,10.721-0.831,16.06-1.502c5.492-0.69,10.916-1.671,16.152-3.51C216.052,354.479,216.759,354.616,217.499,354.746z
				 M144.736,405.403c-0.012-0.69-0.729-1.648-1.794-2.382c-4.65-3.201-8.605-7.166-12.118-11.527
				c-4.83-5.997-9.398-12.193-10.613-20.125c-0.035-0.228-0.142-0.454-0.257-0.658c-0.248-0.438-0.621-0.728-1.142-0.727
				c-0.581,0.001-1.013,0.311-1.209,0.835c-0.163,0.437-0.272,0.917-0.29,1.382c-0.149,3.874,0.301,7.684,1.561,11.351
				c3.537,10.291,9.977,18.296,19.171,24.101c0.881,0.556,1.723,1.185,2.774,1.406C142.917,409.499,144.751,408.103,144.736,405.403
				z M153.686,378.466c-4.313-0.316-6.675,3.047-6.833,6.316c-0.146,3.024,2.58,5.221,5.91,5.405
				c3.68,0.204,6.899-2.966,6.871-6.068C159.608,381.141,157.021,378.094,153.686,378.466z M192.002,383.881
				c3.983,0.022,7.132-2.684,7.207-6.114c0.074-3.357-2.563-5.686-6.045-5.723c-3.505-0.037-6.765,3.199-6.781,6.52
				C186.368,381.577,188.783,383.863,192.002,383.881z M171.866,394.457c0.025,2.8,1.73,4.786,4.117,4.796
				c2.687,0.012,4.762-2.097,4.705-4.781c-0.052-2.466-1.91-4.341-4.289-4.331C173.976,390.152,171.846,392.18,171.866,394.457z
				 M148.79,410.683c-0.031,1.872,1.415,3.457,3.185,3.488c1.657,0.029,3.001-1.405,3.051-3.256
				c0.049-1.818-1.349-3.267-3.168-3.283C150.154,407.617,148.819,408.945,148.79,410.683z M169.875,373.724
				c-0.011-1.451-1.207-2.67-2.584-2.634c-1.052,0.027-2.451,1.497-2.451,2.575c0,1.355,1.11,2.569,2.31,2.526
				C168.683,376.136,169.885,375.048,169.875,373.724z M199.479,401.177c0.019-1.269-1.241-2.485-2.559-2.472
				c-1.025,0.011-2.285,1.288-2.274,2.304c0.014,1.334,1.208,2.506,2.555,2.508C198.539,403.519,199.459,402.574,199.479,401.177z
				 M132.291,369.883c-0.014,1.347,0.935,2.313,2.265,2.307c1.069-0.005,2.256-1.284,2.291-2.467c0.039-1.314-0.807-2.2-2.16-2.26
				C133.479,367.408,132.304,368.595,132.291,369.883z M171.873,411.726c-0.01-1.16-1.182-2.46-2.245-2.49
				c-1.121-0.032-2.281,1.006-2.311,2.069c-0.035,1.252,1.273,2.494,2.599,2.467C171.215,413.745,171.885,413.045,171.873,411.726z
				 M205.83,368.787c1.065,0.032,2.396-1.151,2.458-2.186c0.061-1.013-0.961-2.043-2.069-2.084
				c-1.386-0.052-2.461,0.882-2.463,2.138C203.754,367.756,204.724,368.753,205.83,368.787z"/>
			<path style="fill:#FCFDFD;" d="M169.286,332.669c4.868,0.017,8.327-3.218,8.327-7.788c0.001-4.46-3.601-7.805-8.297-7.965
				c-3.983-0.135-8.527,3.631-8.485,7.888C160.874,329.127,164.627,332.653,169.286,332.669z M166.205,299.928
				c0.008-3.077-2.224-5.436-5.152-5.444c-3.332-0.008-4.757,2.198-5.072,5.477c-0.274,2.852,2.164,5.09,5.1,5.079
				C164.006,305.029,166.197,302.843,166.205,299.928z M174.632,294.102c-0.386-1.389-0.207-2.867-0.222-4.33
				c-0.053-5.111-0.493-10.184-1.373-15.221c-0.106-0.605-0.325-1.028-0.942-1.005c-0.535,0.02-0.7,0.438-0.843,0.961
				c-0.743,2.716-0.711,5.535-0.965,8.291c-0.351,3.812-0.121,7.678-0.116,11.521c0.002,1.469,0.918,2.599,2.057,2.634
				C173.232,296.984,174.625,295.365,174.632,294.102z M139.359,336.325c1.357-0.105,2.667-0.843,3.512-2.31
				c0.677-1.176,0.619-2.357-0.138-3.488c-1.344-2.009-3.884-1.974-5.992,0.072c-0.987,0.957-1.559,2.03-1.003,3.433
				C136.286,335.419,137.555,336.296,139.359,336.325z M173.609,265.249c-0.023,0-0.046,0-0.069,0c0-0.801,0.099-1.617-0.027-2.397
				c-0.134-0.825-0.394-1.668-1.54-1.674c-1.147-0.006-1.621,0.713-1.741,1.663c-0.141,1.114-0.209,2.216-0.528,3.321
				c-0.376,1.306,0.692,2.625,1.945,2.688c1.27,0.064,1.947-0.741,1.959-2.329C173.612,266.097,173.609,265.673,173.609,265.249z
				 M162.939,253.743c0,0.013,0,0.027,0,0.04c-0.944,0-1.889-0.01-2.833,0.003c-0.689,0.01-1.183,0.329-1.33,1.026
				c-0.145,0.691,0.101,1.138,0.822,1.398c2.068,0.747,4.189,0.519,6.271,0.272c0.766-0.091,1.007-1.019,0.861-1.857
				c-0.141-0.811-0.735-0.883-1.382-0.884C164.545,253.742,163.742,253.743,162.939,253.743z M161.831,337.972
				c0.02-1.12-1.052-2.14-2.234-2.125c-1.073,0.013-2.084,1.006-2.131,2.094c-0.047,1.088,1.045,2.21,2.162,2.22
				C160.734,340.171,161.81,339.103,161.831,337.972z"/>
			<path style="fill:#9A74F0;" d="M110.569,354.72c8.877-6.539,19.236-8.824,29.841-10.443c9.488-1.449,19.032-1.96,28.611-1.669
				c16.245,0.494,32.117,3.026,47.312,9.058c0.94,0.819,1.02,1.963,1.166,3.081c-0.74-0.131-1.447-0.267-2.223,0.005
				c-5.236,1.839-10.661,2.82-16.152,3.51c-5.339,0.67-10.686,1.156-16.06,1.502c-4.82,0.31-9.646,0.272-14.453,0.567
				c-5.926,0.363-11.821-0.183-17.732-0.158c-4.807,0.02-9.632-0.338-14.42-0.823c-7.919-0.803-15.909-1.162-23.645-3.318
				c-0.809-0.225-1.542-0.773-2.445-0.646C110.435,355.163,110.502,354.942,110.569,354.72z"/>
			<path style="fill:#FCF7F9;" d="M144.736,405.403c0.015,2.7-1.819,4.096-3.917,3.656c-1.051-0.22-1.892-0.849-2.774-1.406
				c-9.193-5.805-15.634-13.81-19.171-24.101c-1.26-3.667-1.71-7.477-1.561-11.351c0.018-0.465,0.126-0.945,0.29-1.382
				c0.196-0.524,0.628-0.835,1.209-0.835c0.521-0.001,0.894,0.289,1.142,0.727c0.115,0.204,0.222,0.43,0.257,0.658
				c1.214,7.933,5.783,14.128,10.613,20.125c3.512,4.361,7.468,8.326,12.118,11.527
				C144.007,403.755,144.724,404.713,144.736,405.403z"/>
			<path style="fill:#542EA7;" d="M153.686,378.466c3.335-0.372,5.921,2.675,5.948,5.654c0.028,3.102-3.191,6.271-6.871,6.068
				c-3.329-0.184-6.056-2.381-5.91-5.405C147.012,381.512,149.374,378.149,153.686,378.466z"/>
			<path style="fill:#542EA7;" d="M192.002,383.881c-3.219-0.018-5.634-2.303-5.62-5.316c0.016-3.321,3.277-6.557,6.781-6.52
				c3.482,0.037,6.119,2.366,6.045,5.723C199.134,381.197,195.985,383.903,192.002,383.881z"/>
			<path style="fill:#542EA7;" d="M171.866,394.457c-0.02-2.277,2.11-4.305,4.533-4.316c2.379-0.011,4.237,1.865,4.289,4.331
				c0.057,2.684-2.018,4.793-4.705,4.781C173.597,399.243,171.891,397.257,171.866,394.457z"/>
			<path style="fill:#FCF7F9;" d="M148.79,410.683c0.029-1.738,1.364-3.065,3.067-3.05c1.819,0.016,3.217,1.464,3.168,3.283
				c-0.05,1.851-1.394,3.285-3.051,3.256C150.205,414.14,148.759,412.555,148.79,410.683z"/>
			<path style="fill:#542EA7;" d="M169.875,373.724c0.01,1.324-1.192,2.412-2.725,2.467c-1.2,0.043-2.31-1.171-2.31-2.526
				c0-1.078,1.399-2.548,2.451-2.575C168.668,371.054,169.864,372.273,169.875,373.724z"/>
			<path style="fill:#542EA7;" d="M199.479,401.177c-0.02,1.397-0.94,2.342-2.278,2.341c-1.347-0.002-2.541-1.174-2.555-2.508
				c-0.011-1.017,1.249-2.294,2.274-2.304C198.238,398.691,199.498,399.908,199.479,401.177z"/>
			<path style="fill:#542EA7;" d="M132.291,369.883c0.013-1.287,1.188-2.474,2.396-2.421c1.353,0.06,2.199,0.946,2.16,2.26
				c-0.035,1.184-1.222,2.462-2.291,2.467C133.226,372.196,132.278,371.23,132.291,369.883z"/>
			<path style="fill:#542EA7;" d="M171.873,411.726c0.012,1.319-0.658,2.019-1.956,2.045c-1.326,0.027-2.635-1.215-2.599-2.467
				c0.03-1.062,1.19-2.1,2.311-2.069C170.691,409.266,171.863,410.566,171.873,411.726z"/>
			<path style="fill:#542EA7;" d="M205.83,368.787c-1.106-0.033-2.075-1.03-2.074-2.132c0.002-1.256,1.077-2.19,2.463-2.138
				c1.108,0.041,2.13,1.071,2.069,2.084C208.225,367.636,206.895,368.819,205.83,368.787z"/>
			<path style="fill:#9A74F0;" d="M169.286,332.669c-4.659-0.016-8.412-3.542-8.455-7.865c-0.042-4.257,4.502-8.024,8.485-7.888
				c4.696,0.159,8.298,3.505,8.297,7.965C177.613,329.452,174.155,332.686,169.286,332.669z"/>
			<path style="fill:#9A74F0;" d="M166.205,299.928c-0.008,2.914-2.199,5.101-5.124,5.112c-2.937,0.012-5.374-2.227-5.1-5.079
				c0.315-3.279,1.74-5.485,5.072-5.477C163.982,294.492,166.214,296.851,166.205,299.928z"/>
			<path style="fill:#76FBDD;" d="M174.632,294.102c-0.007,1.263-1.4,2.881-2.404,2.851c-1.14-0.035-2.055-1.165-2.057-2.634
				c-0.005-3.843-0.236-7.71,0.116-11.521c0.254-2.756,0.222-5.575,0.965-8.291c0.143-0.523,0.307-0.941,0.843-0.961
				c0.617-0.023,0.836,0.4,0.942,1.005c0.881,5.037,1.321,10.109,1.373,15.221C174.425,291.236,174.246,292.713,174.632,294.102z"/>
			<path style="fill:#9A74F0;" d="M139.359,336.325c-1.804-0.03-3.073-0.906-3.622-2.293c-0.556-1.403,0.017-2.476,1.003-3.433
				c2.109-2.045,4.648-2.08,5.992-0.072c0.757,1.131,0.815,2.312,0.138,3.488C142.026,335.483,140.717,336.22,139.359,336.325z"/>
			<path style="fill:#9A74F0;" d="M174.384,337.649c0.915-0.004,1.602,0.753,1.616,1.78c0.014,1.043-0.746,1.83-1.75,1.812
				c-0.868-0.015-1.884-1.014-1.906-1.876C172.319,338.437,173.25,337.654,174.384,337.649z"/>
			<path style="fill:#76FBDD;" d="M173.609,265.249c0,0.424,0.003,0.848,0,1.272c-0.012,1.588-0.689,2.393-1.959,2.329
				c-1.252-0.063-2.321-1.382-1.945-2.688c0.318-1.105,0.386-2.207,0.528-3.321c0.12-0.95,0.594-1.669,1.741-1.663
				c1.146,0.006,1.406,0.848,1.54,1.674c0.127,0.78,0.027,1.597,0.027,2.397C173.564,265.249,173.587,265.249,173.609,265.249z"/>
			<path style="fill:#76FBDD;" d="M162.939,253.743c0.803,0,1.606-0.001,2.409,0c0.647,0.001,1.242,0.072,1.382,0.884
				c0.145,0.837-0.095,1.766-0.861,1.857c-2.082,0.246-4.203,0.474-6.271-0.272c-0.721-0.26-0.967-0.707-0.822-1.398
				c0.146-0.697,0.64-1.017,1.33-1.026c0.944-0.013,1.889-0.003,2.833-0.003C162.939,253.77,162.939,253.756,162.939,253.743z"/>
			<path style="fill:#9A74F0;" d="M161.831,337.972c-0.021,1.131-1.096,2.2-2.204,2.189c-1.117-0.01-2.209-1.132-2.162-2.22
				c0.047-1.088,1.058-2.081,2.131-2.094C160.779,335.832,161.851,336.852,161.831,337.972z"/>
			<circle style="fill:#9A74F0;" cx="147.5" cy="213.5" r="8.5"/>
			<circle style="fill:#9A74F0;" cx="172" cy="185" r="8"/>
			<circle style="fill:#9A74F0;" cx="151.5" cy="160.5" r="2.5"/>
			<circle style="fill:#9A74F0;" cx="171.5" cy="218.5" r="2.5"/>
			<path style="fill:#FCFDFD;" d="M184,327c4-2,21,9,20,14S179.183,329.408,184,327z"/>
			<circle style="fill:#FCFDFD;" cx="207.5" cy="345.5" r="2.5"/>
			<path style="fill:#FCFDFD;" d="M175,240c2.53-1.265,8,0,9,2s-2,6-5,6s-1-2-1-4S173,241,175,240z"/>
		</g>
	</g>
	<g>
		<circle style="fill:#FFFFFF;" cx="289.277" cy="411.074" r="2.526"/>
		<circle style="fill:#FFFFFF;" cx="52.684" cy="395.426" r="2.526"/>
		<circle style="fill:#FFFFFF;" cx="113.802" cy="293.853" r="2.526"/>
		<circle style="fill:#FFFFFF;" cx="186.566" cy="84.97" r="2.526"/>
		<circle style="fill:#FFFFFF;" cx="387.321" cy="198.272" r="2.526"/>
		<circle style="fill:#FFFFFF;" cx="310.014" cy="73.28" r="2.526"/>
		<circle style="fill:#FFFFFF;" cx="424.474" cy="283.75" r="2.526"/>
		<circle style="fill:#FFFFFF;" cx="233.919" cy="405.852" r="2.526"/>
		<circle style="fill:#FFFFFF;" cx="345.986" cy="131.729" r="2.526"/>
		<circle style="fill:#FFFFFF;" cx="463.861" cy="368.173" r="2.526"/>
		<circle style="fill:#FFFFFF;" cx="310.322" cy="146.058" r="2.526"/>
		<circle style="fill:#FFFFFF;" cx="104.674" cy="76.13" r="2.526"/>
		<circle style="fill:#FFFFFF;" cx="85.526" cy="201.135" r="2.526"/>
		<path style="fill:#FFFFFF;" d="M396.438,97.396c0.676-0.211,1.429-0.339,1.409-1.227c-0.02-0.909-0.609-1.384-1.491-1.56
			c-1.509-0.3-3.006-0.659-4.517-0.949c-0.675-0.13-0.957-0.436-1.047-1.149c-0.197-1.556-0.492-3.103-0.805-4.641
			c-0.15-0.738-0.483-1.43-0.972-2.019c-0.408-0.493-0.963-0.721-1.583-0.564c-0.625,0.158-0.667,0.743-0.731,1.266
			c-0.195,1.592-0.453,3.181-0.546,4.779c-0.068,1.174-0.543,1.592-1.708,1.718c-1.591,0.173-3.145,0.647-4.493,1.583
			c-0.376,0.261-0.703,0.611-0.606,1.151c0.097,0.538,0.546,0.587,0.958,0.697c1.424,0.38,2.844,0.773,4.269,1.144
			c0.56,0.146,0.917,0.397,0.958,1.047c0.07,1.11,0.236,2.211,0.312,3.325c0.088,1.294,0.062,2.634,0.649,3.853
			c0.214,0.443,0.55,0.767,1.061,0.753c0.512-0.014,0.86-0.36,1.012-0.813c0.197-0.587,0.354-1.196,0.443-1.808
			c0.216-1.489,0.379-2.985,0.572-4.477c0.107-0.826,0.388-1.379,1.424-1.289c0.702,0.06,1.428-0.16,2.143-0.254
			C394.26,97.86,395.364,97.731,396.438,97.396z M385.772,94.819c1.352-0.203,1.992-0.818,2.109-2.169
			c0.149-1.712,0.237-3.43,0.46-5.141c0.243,1.837,0.558,3.668,0.703,5.513c0.1,1.273,0.333,1.788,1.573,2.135
			c1.121,0.314,2.261,0.559,3.393,0.835c0.003,0.104,0.006,0.208,0.009,0.312c-1.144,0.151-2.287,0.302-3.431,0.454
			c-1.445,0.192-1.607,0.34-1.934,1.772c-0.258,1.13-0.517,2.261-0.85,3.383c-0.341-1.075-0.488-2.174-0.674-3.247
			c-0.288-1.663-1.371-2.272-2.764-2.646c-0.561-0.151-1.142-0.226-1.985-0.387C383.62,94.981,384.714,94.978,385.772,94.819z"/>
		<path style="fill:#FFFFFF;" d="M76.473,337.385c-0.534,0.167-1.129,0.268-1.113,0.97c0.016,0.718,0.481,1.093,1.178,1.232
			c1.192,0.237,2.375,0.52,3.568,0.75c0.533,0.102,0.756,0.345,0.827,0.907c0.156,1.23,0.388,2.451,0.636,3.666
			c0.119,0.583,0.382,1.129,0.768,1.595c0.323,0.389,0.761,0.57,1.25,0.446c0.493-0.125,0.527-0.587,0.578-1
			c0.154-1.257,0.358-2.512,0.431-3.775c0.054-0.927,0.429-1.257,1.35-1.357c1.257-0.136,2.484-0.511,3.549-1.251
			c0.297-0.206,0.556-0.482,0.478-0.909c-0.077-0.425-0.431-0.464-0.757-0.551c-1.124-0.3-2.246-0.61-3.373-0.903
			c-0.442-0.115-0.725-0.313-0.757-0.827c-0.055-0.877-0.187-1.747-0.246-2.626c-0.07-1.023-0.049-2.081-0.513-3.043
			c-0.169-0.35-0.434-0.606-0.838-0.595c-0.404,0.011-0.679,0.284-0.799,0.642c-0.156,0.463-0.28,0.945-0.35,1.428
			c-0.171,1.176-0.3,2.358-0.452,3.537c-0.084,0.653-0.306,1.089-1.125,1.019c-0.555-0.048-1.128,0.126-1.693,0.201
			C78.193,337.017,77.321,337.12,76.473,337.385z M84.899,339.42c-1.068,0.161-1.574,0.646-1.666,1.713
			c-0.117,1.353-0.188,2.709-0.363,4.061c-0.192-1.451-0.441-2.898-0.556-4.355c-0.079-1.006-0.263-1.412-1.243-1.687
			c-0.886-0.248-1.786-0.442-2.68-0.66c-0.002-0.082-0.005-0.164-0.007-0.247c0.903-0.119,1.807-0.238,2.71-0.358
			c1.141-0.151,1.269-0.269,1.528-1.4c0.204-0.893,0.409-1.786,0.671-2.672c0.269,0.849,0.386,1.717,0.533,2.565
			c0.228,1.313,1.083,1.795,2.183,2.09c0.443,0.119,0.902,0.178,1.568,0.306C86.598,339.292,85.734,339.295,84.899,339.42z"/>
		<path style="fill:#FFFFFF;" d="M215.978,192.144c0.665-0.208,1.407-0.334,1.387-1.208c-0.02-0.894-0.599-1.362-1.468-1.535
			c-1.485-0.295-2.958-0.648-4.445-0.934c-0.664-0.128-0.942-0.43-1.031-1.13c-0.194-1.532-0.484-3.054-0.792-4.568
			c-0.148-0.727-0.476-1.407-0.956-1.987c-0.402-0.485-0.948-0.71-1.558-0.555c-0.615,0.156-0.657,0.731-0.72,1.245
			c-0.192,1.567-0.446,3.13-0.537,4.703c-0.067,1.155-0.534,1.566-1.681,1.691c-1.566,0.17-3.095,0.637-4.422,1.558
			c-0.37,0.257-0.692,0.601-0.596,1.133c0.096,0.53,0.537,0.578,0.943,0.686c1.401,0.374,2.798,0.761,4.202,1.126
			c0.551,0.143,0.903,0.39,0.943,1.031c0.069,1.092,0.232,2.176,0.307,3.272c0.087,1.274,0.061,2.592,0.639,3.792
			c0.21,0.436,0.541,0.755,1.044,0.741c0.504-0.014,0.846-0.354,0.996-0.8c0.194-0.577,0.348-1.177,0.436-1.779
			c0.213-1.465,0.373-2.938,0.563-4.406c0.105-0.813,0.382-1.357,1.401-1.269c0.691,0.059,1.405-0.157,2.109-0.25
			C213.835,192.601,214.921,192.474,215.978,192.144z M205.481,189.608c1.331-0.2,1.961-0.805,2.076-2.135
			c0.146-1.685,0.234-3.375,0.452-5.059c0.239,1.808,0.549,3.61,0.692,5.426c0.099,1.253,0.327,1.76,1.548,2.101
			c1.103,0.309,2.225,0.55,3.339,0.822c0.003,0.102,0.006,0.205,0.009,0.307c-1.125,0.149-2.251,0.297-3.376,0.446
			c-1.422,0.189-1.581,0.335-1.903,1.744c-0.254,1.112-0.509,2.225-0.836,3.329c-0.336-1.058-0.48-2.14-0.664-3.196
			c-0.284-1.636-1.349-2.236-2.72-2.604c-0.552-0.148-1.124-0.222-1.954-0.381C203.364,189.768,204.44,189.764,205.481,189.608z"/>
		<path style="fill:#FFFFFF;" d="M401.978,341.144c0.665-0.208,1.407-0.334,1.387-1.208c-0.02-0.894-0.599-1.362-1.468-1.535
			c-1.485-0.295-2.958-0.648-4.445-0.934c-0.664-0.128-0.942-0.43-1.031-1.13c-0.194-1.532-0.484-3.054-0.792-4.568
			c-0.148-0.727-0.476-1.407-0.956-1.987c-0.402-0.485-0.948-0.71-1.558-0.555c-0.615,0.156-0.657,0.731-0.72,1.245
			c-0.192,1.567-0.446,3.13-0.537,4.703c-0.067,1.155-0.534,1.566-1.681,1.691c-1.566,0.17-3.095,0.637-4.422,1.558
			c-0.37,0.257-0.692,0.601-0.596,1.133c0.096,0.53,0.537,0.578,0.943,0.686c1.401,0.374,2.798,0.761,4.202,1.125
			c0.551,0.143,0.903,0.39,0.943,1.031c0.069,1.092,0.232,2.176,0.307,3.272c0.087,1.274,0.061,2.592,0.639,3.792
			c0.21,0.436,0.541,0.755,1.044,0.741c0.504-0.014,0.846-0.354,0.996-0.8c0.194-0.577,0.348-1.177,0.436-1.779
			c0.213-1.465,0.373-2.938,0.563-4.406c0.105-0.813,0.382-1.357,1.401-1.269c0.691,0.059,1.405-0.157,2.109-0.25
			C399.835,341.601,400.921,341.474,401.978,341.144z M391.481,338.608c1.331-0.2,1.961-0.805,2.076-2.135
			c0.146-1.685,0.234-3.375,0.452-5.059c0.239,1.808,0.549,3.61,0.692,5.426c0.099,1.253,0.327,1.76,1.548,2.101
			c1.103,0.309,2.225,0.55,3.339,0.822c0.003,0.102,0.006,0.205,0.009,0.307c-1.125,0.149-2.251,0.297-3.376,0.446
			c-1.422,0.189-1.581,0.335-1.903,1.744c-0.254,1.112-0.509,2.225-0.836,3.329c-0.336-1.058-0.48-2.14-0.664-3.196
			c-0.284-1.636-1.349-2.236-2.72-2.604c-0.552-0.148-1.124-0.222-1.954-0.381C389.364,338.768,390.44,338.764,391.481,338.608z"/>
	</g>
</g>
</svg>
