<svg width="137" height="330" viewBox="0 0 137 330" fill="none" xmlns="http://www.w3.org/2000/svg">
<path d="M48.916 59.7031C55.768 58.9751 63.348 59.0711 70.914 58.7941C72.765 58.7261 74.5869 58.7991 76.4209 58.8701C81.6849 59.0721 86.936 58.6401 92.194 58.5651C94.026 58.5391 95.767 58.9171 97.432 59.5681C100.669 60.8341 102.681 63.3451 103.748 66.5451C106.226 73.9741 101.609 80.2181 94.815 82.4101C93.076 82.9711 91.3289 83.5851 89.4559 83.5691C88.8419 83.5641 88.5799 83.8671 88.7009 84.4661C89.2299 87.0831 88.973 89.7481 89.187 92.3881C89.917 101.379 89.2879 110.399 89.5849 119.401C89.7789 125.307 89.955 131.217 90.606 137.098C90.648 137.473 90.625 137.856 90.625 138.236C90.635 150.097 90.6719 161.958 90.6329 173.819C90.6229 176.891 91.148 179.78 92.337 182.629C93.832 186.209 95.16 189.854 96.888 193.341C97.922 195.427 99.437 197.157 100.659 199.096C101.609 200.604 102.533 202.134 103.363 203.71C104.714 206.275 107.234 207.976 108.462 210.598C110.463 214.873 113.932 218.092 116.466 221.967C118.943 225.753 122.247 228.923 124.498 232.831C126.28 235.925 128.635 238.661 130.097 241.94C131.851 245.873 133.928 249.714 134.873 253.926C135.735 257.769 136.66 261.648 136.749 265.617C136.807 268.209 137.094 270.78 136.899 273.408C136.584 277.658 135.383 281.633 133.77 285.475C132.126 289.391 130.275 293.228 128.288 296.994C127.356 298.761 126.081 300.266 124.84 301.786C122.078 305.171 119.286 308.524 116.286 311.722C113.657 314.525 110.952 317.112 107.736 319.231C105.984 320.386 104.624 322.1 102.823 323.248C100.822 324.523 98.667 325.457 96.355 325.947C94.183 326.407 92.2639 327.542 90.0939 328.037C85.1419 329.166 80.2 330.06 75.109 329.139C74.83 329.089 74.545 329.014 74.267 329.03C68.868 329.325 63.52 328.262 58.126 328.442C56.127 328.509 54.233 327.964 52.335 327.424C51.845 327.284 51.304 327.294 50.786 327.285C47.508 327.229 44.358 326.419 41.19 325.704C38.533 325.105 35.829 324.716 33.227 323.873C29.944 322.81 26.776 321.488 24.231 319.094C22.229 317.21 20.019 315.628 17.76 314.097C14.037 311.574 11.162 308.258 8.70396 304.531C7.56696 302.808 6.27496 301.184 5.32396 299.344C3.85796 296.508 3.19095 293.366 1.95695 290.434C0.684954 287.413 0.421951 284.181 0.128951 280.932C-0.168049 277.648 0.12095 274.402 0.26895 271.151C0.39295 268.432 1.04795 265.754 1.69595 263.104C2.29795 260.64 2.95096 258.186 3.64496 255.746C4.45696 252.892 5.81296 250.268 7.18596 247.654C10.898 240.588 15.465 234.15 20.857 228.242C23.31 225.554 26.237 223.261 28.275 220.264C30.382 217.166 33.338 214.799 35.302 211.644C38.423 206.629 41.384 201.503 43.344 195.901C44.812 191.706 46.117 187.45 47.373 183.185C47.792 181.763 47.187 180.278 47.071 178.821C46.848 176.028 46.888 173.241 47.049 170.451C47.073 170.027 47.159 169.606 47.165 169.183C47.283 160.886 47.266 152.586 47.536 144.294C47.964 131.112 47.521 117.928 47.809 104.749C47.918 99.7731 47.969 94.7961 48.076 89.8201C48.093 89.0221 48.253 88.2251 48.362 87.4301C48.73 84.7311 48.705 84.8331 46.185 84.1501C41.629 82.9151 38.166 80.2761 35.93 76.0161C33.883 72.1161 35.163 67.1031 37.669 64.1251C40.413 60.8601 44.006 59.5131 48.916 59.7031ZM102.063 216.022C101.895 215.121 101.467 214.308 100.879 213.659C98.756 211.315 96.892 208.815 95.468 205.971C94.003 203.046 91.6569 200.697 90.3949 197.563C88.5279 192.926 85.957 188.601 84.716 183.669C83.84 180.188 82.881 176.714 82.827 173.143C82.696 164.521 82.4709 155.904 82.2399 147.285C82.0819 141.372 82.456 135.457 82.605 129.545C82.908 117.517 82.677 105.476 82.69 93.4411C82.694 89.5681 82.378 85.6441 83.351 81.8601C84.331 78.0531 86.006 76.5241 89.816 77.6531C91.411 78.1261 94.638 77.2411 95.967 76.4721C98.196 75.1831 98.566 71.8581 97.967 69.4721C96.967 65.4721 94.105 64.7291 91.194 64.6681C89.302 64.6281 87.413 64.4511 85.521 64.4281C81.969 64.3841 61.125 65.4241 54.253 65.3721C52.877 65.3611 51.53 65.1831 50.167 64.9901C48.761 64.7911 47.184 64.1551 45.886 65.0301C44.489 65.9721 43.223 67.1611 42.076 68.4041C41.265 69.2831 40.636 70.4371 40.779 71.7111C41.005 73.7211 41.925 75.4691 43.658 76.5231C46.989 78.5501 50.428 80.2211 54.573 79.1611C56.507 78.6661 58.403 80.1871 58.522 82.0421C58.648 84.0251 57.344 85.2931 55.14 85.3271C54.713 85.3341 54.278 85.3811 53.861 85.3171C52.708 85.1411 52.433 85.7131 52.599 86.7071C52.754 87.6381 53.031 88.5671 53.049 89.5011C53.15 94.8511 53.435 100.196 53.572 105.54C53.986 121.697 53.274 137.869 54.193 154.025C54.408 157.809 54.291 161.611 54.365 165.404C54.465 170.506 55.137 175.603 54.535 180.711C54.14 184.062 54.162 187.444 53.21 190.754C51.685 196.06 49.982 201.283 47.701 206.318C45.861 210.38 43.553 214.17 41.204 217.942C40.783 218.819 39.765 219.23 39.45 220.189C38.829 220.156 38.564 220.66 38.21 221.021C37.168 222.086 36.189 223.22 35.091 224.223C27.981 230.711 21.836 238.029 16.883 246.257C14.304 250.541 11.958 254.999 10.806 260C9.76995 264.496 8.60996 268.94 8.70396 273.602C8.74996 275.868 9.01496 278.121 9.13896 280.367C9.41496 285.335 11.55 289.684 13.083 294.235C13.928 296.745 15.863 298.636 17.289 300.816C18.944 303.345 21.149 305.34 23.624 307.048C24.963 307.972 26.386 308.788 27.548 309.95C31.403 313.806 36.181 315.821 41.373 317.169C43.06 317.607 44.735 317.627 46.41 317.806C50.845 318.281 55.049 319.834 59.572 320.093C66.188 320.472 72.79 321.083 79.418 320.752C82.176 320.614 84.926 320.311 87.626 319.479C89.817 318.803 91.823 317.653 94.036 317.123C96.2 316.605 98.0499 315.594 99.6369 314.106C101.043 312.787 102.572 311.666 104.169 310.593C105.274 309.85 106.513 309.219 107.319 308.075C109.696 304.702 113.097 302.234 115.456 298.837C117.335 296.13 119.888 293.92 121.248 290.821C122.335 288.342 123.579 285.932 124.693 283.465C126.783 278.837 128.244 274.071 127.78 268.892C127.604 266.921 127.692 264.95 127.264 262.974C126.434 259.148 125.759 255.333 124.449 251.584C122.528 246.088 119.489 241.235 116.603 236.303C113.864 231.623 110.688 227.191 107.561 222.751C106.686 221.509 105.928 220.02 104.363 219.374C103.561 218.28 103.016 217.011 102.063 216.022Z" fill="#76FBDD"/>
<path d="M66.9289 55.2921C62.3639 55.3081 59.0189 51.4371 59.0179 46.1361C59.0169 42.6691 63.0349 39.0341 66.8399 39.0591C71.1459 39.0871 74.8419 42.7751 74.8519 47.0541C74.8629 51.5121 71.2409 55.2771 66.9289 55.2921Z" fill="#EE4670"/>
<path d="M104.359 219.374C105.925 220.02 106.682 221.509 107.557 222.751C110.684 227.191 113.86 231.623 116.599 236.303C119.485 241.235 122.524 246.088 124.445 251.584C125.755 255.333 126.431 259.149 127.26 262.974C127.689 264.95 127.6 266.921 127.776 268.892C128.239 274.071 126.778 278.837 124.689 283.465C123.575 285.933 122.331 288.342 121.244 290.821C119.885 293.92 117.331 296.13 115.452 298.837C113.094 302.234 109.692 304.702 107.315 308.075C106.509 309.219 105.271 309.85 104.165 310.593C102.568 311.666 101.039 312.787 99.6329 314.106C98.0459 315.594 96.197 316.605 94.032 317.123C91.82 317.653 89.8139 318.803 87.6219 319.479C84.9229 320.311 82.1719 320.614 79.4139 320.752C72.7859 321.083 66.184 320.472 59.568 320.093C55.045 319.834 50.8409 318.282 46.4059 317.806C44.7309 317.626 43.0559 317.607 41.3689 317.169C36.1769 315.821 31.3979 313.805 27.5439 309.95C26.3819 308.788 24.96 307.972 23.62 307.048C21.144 305.339 18.9399 303.345 17.2849 300.816C15.8579 298.636 13.924 296.745 13.079 294.235C11.546 289.684 9.41095 285.335 9.13495 280.367C9.00995 278.122 8.74494 275.868 8.69994 273.602C8.60594 268.94 9.76594 264.496 10.8019 260C11.9539 255 14.3009 250.541 16.8789 246.257C21.8319 238.028 27.9769 230.711 35.0869 224.223C36.1859 223.22 37.165 222.087 38.206 221.021C38.559 220.66 38.825 220.156 39.445 220.189C40.702 220.919 41.9029 221.776 43.2959 222.226C51.2569 224.798 59.45 226.1 67.786 226.48C72.706 226.705 77.6089 226.373 82.4969 225.687C87.3709 225.003 92.1809 224.063 96.9019 222.681C99.5329 221.912 102.03 220.828 104.359 219.374ZM84.5509 276.616C76.4979 276.748 72.4309 282.112 72.3449 288.753C72.2499 296.085 76.8729 300.523 83.8349 300.71C90.4189 300.887 96.4109 295.346 96.4109 288.873C96.4109 282.288 90.9239 276.365 84.5509 276.616ZM54.7509 307.601C54.6219 306.608 53.9819 305.687 52.8069 305.141C51.2109 304.399 49.5239 303.915 47.8499 303.394C46.3169 302.917 44.6169 302.682 43.4639 301.489C40.8709 298.804 37.5129 297.068 35.0899 294.097C31.9779 290.28 29.17 286.342 27.4729 281.732C25.6809 276.862 24.8109 271.771 24.5199 266.585C24.4719 265.736 24.3299 264.89 24.2019 264.047C24.1369 263.619 24.0019 263.169 23.4899 263.096C22.9269 263.016 22.637 263.431 22.415 263.86C22.264 264.153 22.1389 264.471 22.0689 264.792C20.9009 270.189 20.577 275.64 22.122 280.971C24.27 288.383 28.01 295.026 33.038 300.868C35.192 303.371 37.8929 305.428 40.6659 307.171C43.8899 309.198 47.8289 309.536 51.4619 310.579C53.1169 311.053 54.7729 309.505 54.7509 307.601ZM58.0619 275.204C62.4949 275.618 66.3259 270.695 66.1999 266.582C66.0579 261.922 62.8269 258.176 57.9679 258.202C53.1319 258.228 49.771 261.773 49.788 266.147C49.81 271.539 53.0329 275.164 58.0619 275.204ZM115.91 276.058C119 276.244 120.342 274.241 120.554 271.198C120.713 268.916 117.979 266.769 115.305 266.628C112.464 266.477 111.15 269.035 110.939 272.015C110.769 274.408 112.878 276.036 115.91 276.058ZM96.9049 255.548C94.0709 255.552 92.1179 257.504 92.1119 260.342C92.1049 263.063 93.851 264.948 96.381 264.95C99.325 264.953 101.538 262.715 101.523 259.752C101.51 257.18 99.7129 255.544 96.9049 255.548ZM67.0629 247.283C67.0639 249.22 68.363 250.452 70.39 250.438C72.435 250.423 74.227 248.638 74.174 246.667C74.132 245.107 72.4459 243.628 70.6859 243.606C68.6949 243.581 67.0619 245.238 67.0629 247.283ZM96.3819 237.207C96.3879 238.726 97.7349 240.149 99.1929 240.177C100.994 240.211 102.113 239.027 102.094 237.104C102.076 235.261 100.997 234.182 99.187 234.197C97.419 234.213 96.3749 235.334 96.3819 237.207ZM65.1079 312.693C66.3449 312.674 67.2319 312.141 67.4089 310.858C67.5769 309.637 66.864 308.906 65.775 308.524C64.54 308.092 63.28 308.064 62.008 308.38C61.36 308.541 60.8919 308.896 60.6919 309.537C60.4609 310.275 60.836 310.833 61.344 311.288C62.406 312.241 63.6749 312.692 65.1079 312.693ZM36.3149 251.331C36.3219 252.73 36.8679 253.323 38.1159 253.286C39.2819 253.251 40.3249 252.125 40.2819 250.947C40.2459 249.958 39.2139 248.98 38.2399 249.013C37.1309 249.051 36.3089 250.041 36.3149 251.331ZM80.325 259.834C79.368 259.841 78.4699 260.84 78.4539 261.914C78.4359 263.154 79.1129 263.833 80.3499 263.815C81.4259 263.799 82.4559 262.773 82.4139 261.758C82.3739 260.772 81.346 259.826 80.325 259.834Z" fill="#EE426C"/>
<path d="M41.201 217.942C44.395 216.088 47.757 214.609 51.226 213.35C57.031 211.243 63 209.948 69.155 209.386C77.339 208.639 85.258 209.89 93.045 212.277C96.167 213.234 99.089 214.697 102.063 216.022C103.016 217.011 103.561 218.28 104.359 219.375C102.03 220.828 99.532 221.913 96.904 222.682C92.183 224.063 87.373 225.003 82.499 225.688C77.611 226.374 72.708 226.706 67.788 226.481C59.452 226.1 51.259 224.798 43.298 222.227C41.905 221.777 40.704 220.92 39.447 220.19C39.763 219.23 40.78 218.819 41.201 217.942ZM71.93 213.725C70.115 213.714 68.477 215.313 68.468 217.106C68.459 219.004 69.626 220.196 71.535 220.237C73.34 220.276 75.03 218.61 74.999 216.82C74.97 215.115 73.602 213.735 71.93 213.725Z" fill="#F39AB0"/>
<path d="M84.551 276.616C90.924 276.365 96.411 282.287 96.411 288.873C96.411 295.346 90.419 300.887 83.835 300.71C76.873 300.523 72.249 296.085 72.345 288.753C72.431 282.112 76.499 276.749 84.551 276.616Z" fill="#BE264D"/>
<path d="M54.7509 307.601C54.7729 309.506 53.1159 311.053 51.4629 310.578C47.8309 309.535 43.8919 309.197 40.6669 307.17C37.8939 305.426 35.1929 303.37 33.0389 300.867C28.0109 295.025 24.2709 288.383 22.1229 280.97C20.5779 275.639 20.9019 270.188 22.0699 264.791C22.1399 264.47 22.2639 264.152 22.4159 263.859C22.6379 263.43 22.9279 263.015 23.4909 263.095C24.0029 263.168 24.1379 263.618 24.2029 264.046C24.3309 264.889 24.4729 265.735 24.5209 266.584C24.8119 271.77 25.6819 276.861 27.4739 281.731C29.1699 286.341 31.9789 290.279 35.0909 294.096C37.5139 297.068 40.8719 298.803 43.4649 301.488C44.6169 302.681 46.3179 302.916 47.8509 303.393C49.5249 303.914 51.2109 304.398 52.8079 305.14C53.9829 305.686 54.6219 306.608 54.7509 307.601Z" fill="#FCF7F9"/>
<path d="M58.0619 275.204C53.0339 275.164 49.8099 271.538 49.7879 266.147C49.7699 261.772 53.1319 258.227 57.9679 258.202C62.8269 258.176 66.0579 261.922 66.1999 266.582C66.3249 270.695 62.4949 275.618 58.0619 275.204Z" fill="#BE264D"/>
<path d="M115.91 276.058C112.879 276.036 110.769 274.408 110.939 272.015C111.15 269.035 112.464 266.477 115.305 266.628C117.979 266.77 120.712 268.917 120.554 271.198C120.341 274.241 119 276.244 115.91 276.058Z" fill="#BE264D"/>
<path d="M96.905 255.548C99.712 255.544 101.51 257.18 101.523 259.752C101.538 262.715 99.324 264.953 96.381 264.95C93.851 264.948 92.105 263.063 92.112 260.342C92.119 257.504 94.071 255.552 96.905 255.548Z" fill="#BE264D"/>
<path d="M67.063 247.283C67.062 245.238 68.695 243.581 70.687 243.606C72.447 243.628 74.133 245.108 74.175 246.667C74.228 248.637 72.436 250.423 70.391 250.438C68.363 250.452 67.064 249.22 67.063 247.283Z" fill="#BE264D"/>
<path d="M96.382 237.207C96.375 235.333 97.419 234.213 99.187 234.198C100.997 234.183 102.076 235.262 102.094 237.105C102.113 239.027 100.994 240.212 99.193 240.178C97.734 240.15 96.387 238.726 96.382 237.207Z" fill="#BE264D"/>
<path d="M65.108 312.693C63.675 312.693 62.407 312.241 61.342 311.288C60.834 310.833 60.46 310.275 60.69 309.537C60.89 308.896 61.358 308.542 62.006 308.38C63.279 308.064 64.538 308.091 65.773 308.524C66.863 308.906 67.576 309.636 67.407 310.858C67.232 312.14 66.345 312.673 65.108 312.693Z" fill="#FCF7F9"/>
<path d="M36.315 251.331C36.309 250.041 37.131 249.051 38.24 249.013C39.214 248.98 40.246 249.958 40.282 250.947C40.325 252.125 39.282 253.251 38.116 253.286C36.868 253.324 36.322 252.731 36.315 251.331Z" fill="#BE264D"/>
<path d="M80.325 259.834C81.346 259.826 82.374 260.772 82.414 261.757C82.456 262.772 81.426 263.799 80.35 263.814C79.113 263.832 78.436 263.153 78.454 261.913C78.47 260.84 79.368 259.842 80.325 259.834Z" fill="#BE264D"/>
<path d="M73.547 143.084C74.285 141.283 74.042 139.355 74.098 137.505C74.267 131.866 74.06 126.213 74.293 120.578C74.505 115.461 74.082 110.361 74.22 105.253C74.23 104.874 74.176 104.481 74.259 104.119C74.391 103.537 74.734 103.022 75.393 103.071C75.942 103.113 76.285 103.553 76.413 104.102C76.455 104.284 76.456 104.48 76.45 104.668C76.246 110.405 76.792 116.119 77.078 121.837C77.307 126.41 77.73 130.983 78.033 135.55C78.406 141.161 78.999 146.781 78.771 152.426C78.668 154.987 79.486 157.503 79.241 160.061C79.007 162.5 78.296 163.275 76.548 163.327C75.257 163.365 74.493 162.709 74.189 161.524C73.872 160.288 73.702 159.026 73.684 157.741C73.622 153.239 73.823 148.734 73.575 144.236C73.565 143.855 73.556 143.47 73.547 143.084Z" fill="#76FBDD"/>
<path d="M66.561 199.802C62.768 199.808 59.464 196.903 59.52 193.494C59.607 188.266 61.59 185.251 66.714 184.989C70.632 184.788 73.797 188.201 73.831 192.269C73.865 196.396 70.584 199.795 66.561 199.802Z" fill="#EE426C"/>
<path d="M73.5469 143.084C73.5559 143.47 73.5649 143.855 73.5739 144.238C73.0039 146.413 72.0899 148.313 69.8019 149.208C67.9059 149.949 66.2539 149.491 64.8049 148.215C63.2229 146.823 62.4899 143.004 63.3519 141.077C64.2439 139.086 65.9839 137.95 68.0369 138.018C70.2609 138.092 72.2629 139.535 73.0239 141.617C73.2019 142.104 73.3729 142.595 73.5469 143.084Z" fill="#EE4670"/>
<path d="M79.3029 179.234C79.3039 181.303 77.6279 183.154 75.7829 183.121C73.8909 183.088 72.3139 181.442 72.3359 179.523C72.3589 177.497 73.9629 175.901 75.9389 175.938C77.8429 175.973 79.3029 177.403 79.3029 179.234Z" fill="#EE4670"/>
<path d="M80.6589 75.9361C78.7269 75.9701 77.3789 74.7081 77.3329 72.8221C77.2849 70.8271 78.4819 69.5341 80.4049 69.5031C82.3229 69.4731 83.7809 70.7901 83.8059 72.5751C83.8309 74.4051 82.4259 75.9051 80.6589 75.9361Z" fill="#EE4670"/>
<path d="M51.8 13.5211C47.74 13.5931 44.907 10.9391 44.81 6.97609C44.708 2.78309 47.224 0.0650874 51.266 0.00108743C55.298 -0.0629126 58.362 2.70509 58.413 6.45709C58.466 10.3031 55.514 13.4561 51.8 13.5211Z" fill="#EE4670"/>
<path d="M69.4079 85.3061C67.9009 84.9491 66.0599 84.5741 64.2599 84.0561C63.6109 83.8691 63.3259 83.2361 63.3389 82.4711C63.3569 81.4201 64.1519 81.0681 64.8619 80.8531C66.7049 80.2931 68.6069 80.5471 70.4629 80.8541C71.5309 81.0311 72.5479 82.4971 72.3939 83.3381C72.1589 84.6151 71.1859 85.3401 69.4079 85.3061Z" fill="#76FBDD"/>
<path d="M65.661 107.604C65.639 109.824 64.602 111.016 62.733 110.968C60.973 110.923 59.548 109.472 59.6 107.778C59.657 105.931 61.245 104.189 62.825 104.241C64.583 104.298 65.681 105.599 65.661 107.604Z" fill="#EE4670"/>
<path d="M94.661 25.6041C94.639 27.8241 93.602 29.0161 91.733 28.9681C89.974 28.9231 88.548 27.4721 88.6 25.7781C88.657 23.9311 90.245 22.1891 91.825 22.2411C93.583 22.2981 94.681 23.5991 94.661 25.6041Z" fill="#EE4670"/>
<path d="M78.139 96.0181C78.128 96.8051 78.4 97.6481 77.964 98.3751C77.443 99.2441 76.67 99.7151 75.591 99.5401C74.414 99.3491 73.834 98.4421 73.75 97.4891C73.597 95.7741 73.414 94.0201 74.14 92.3261C74.484 91.5231 74.99 91.0671 75.803 91.0811C76.656 91.0961 77.347 91.4921 77.587 92.4031C77.899 93.5871 78.337 94.7511 78.139 96.0181Z" fill="#76FBDD"/>
<path d="M63.9529 171.749C63.9269 173.059 62.956 174.116 61.805 174.088C60.649 174.06 59.5449 172.889 59.6039 171.752C59.6669 170.533 60.7259 169.519 61.9249 169.531C63.1529 169.542 63.9779 170.445 63.9529 171.749Z" fill="#EE4670"/>
<path d="M71.9299 213.725C73.6019 213.736 74.9699 215.115 74.9989 216.82C75.0289 218.61 73.3399 220.276 71.5349 220.237C69.6249 220.195 68.458 219.004 68.468 217.106C68.477 215.313 70.1149 213.713 71.9299 213.725Z" fill="#EE4670"/>
<path d="M85.966 67.4731C88.496 66.2081 93.966 67.4731 94.966 69.4731C95.966 71.4731 92.966 75.4731 89.966 75.4731C86.966 75.4731 88.966 73.4731 88.966 71.4731C88.966 69.4731 83.966 68.4731 85.966 67.4731Z" fill="#FCFDFD"/>
</svg>
