<svg width="84" height="200" viewBox="0 0 84 200" fill="none" xmlns="http://www.w3.org/2000/svg">
<path d="M29.6891 36.2339C33.8479 35.7921 38.4485 35.8504 43.0406 35.6822C44.1641 35.641 45.2699 35.6853 46.3831 35.7284C49.578 35.851 52.7651 35.5888 55.9563 35.5432C57.0683 35.5275 58.125 35.7569 59.1355 36.152C61.1002 36.9204 62.3214 38.4444 62.969 40.3866C64.473 44.8956 61.6707 48.6853 57.5471 50.0158C56.4917 50.3563 55.4313 50.7289 54.2945 50.7192C53.9219 50.7162 53.7629 50.9001 53.8363 51.2636C54.1574 52.852 54.0014 54.4695 54.1313 56.0718C54.5744 61.5288 54.1926 67.0035 54.3728 72.4671C54.4906 76.0517 54.5974 79.6388 54.9925 83.2082C55.018 83.4358 55.0041 83.6683 55.0041 83.8989C55.0101 91.0978 55.0326 98.2968 55.0089 105.496C55.0028 107.36 55.3215 109.114 56.0431 110.843C56.9505 113.016 57.7565 115.228 58.8053 117.344C59.4329 118.61 60.3524 119.66 61.0941 120.837C61.6707 121.753 62.2315 122.681 62.7353 123.638C63.5553 125.195 65.0848 126.227 65.8301 127.818C67.0446 130.413 69.15 132.367 70.688 134.719C72.1914 137.017 74.1968 138.941 75.563 141.313C76.6446 143.19 78.0739 144.851 78.9613 146.841C80.0258 149.228 81.2865 151.56 81.86 154.116C82.3832 156.448 82.9446 158.803 82.9986 161.212C83.0338 162.785 83.208 164.345 83.0897 165.94C82.8985 168.52 82.1695 170.933 81.1905 173.264C80.1927 175.641 79.0693 177.97 77.8633 180.256C77.2976 181.328 76.5238 182.242 75.7706 183.164C74.0942 185.219 72.3996 187.254 70.5788 189.195C68.9831 190.896 67.3414 192.466 65.3894 193.752C64.3261 194.453 63.5006 195.494 62.4075 196.19C61.193 196.964 59.8851 197.531 58.4818 197.829C57.1636 198.108 55.9988 198.797 54.6818 199.097C51.6762 199.782 48.6767 200.325 45.5868 199.766C45.4174 199.736 45.2444 199.69 45.0757 199.7C41.7988 199.879 38.5529 199.234 35.2791 199.343C34.0658 199.384 32.9162 199.053 31.7643 198.725C31.4669 198.64 31.1385 198.646 30.8241 198.641C28.8346 198.607 26.9227 198.115 24.9999 197.681C23.3873 197.317 21.7461 197.081 20.1668 196.57C18.1742 195.925 16.2514 195.122 14.7068 193.669C13.4917 192.526 12.1503 191.565 10.7793 190.636C8.51962 189.105 6.77466 187.092 5.2828 184.83C4.59271 183.784 3.80853 182.799 3.23133 181.682C2.34156 179.961 1.93672 178.054 1.18776 176.274C0.415727 174.441 0.256099 172.479 0.0782655 170.507C-0.101996 168.514 0.0734096 166.544 0.163237 164.571C0.238498 162.92 0.636046 161.295 1.02934 159.686C1.39472 158.191 1.79106 156.702 2.21228 155.221C2.70511 153.488 3.52813 151.896 4.36146 150.309C6.61442 146.021 9.38633 142.113 12.659 138.527C14.1478 136.896 15.9243 135.504 17.1613 133.685C18.4401 131.805 20.2342 130.368 21.4262 128.453C23.3205 125.409 25.1177 122.298 26.3073 118.898C27.1982 116.352 27.9903 113.769 28.7526 111.18C29.0069 110.317 28.6397 109.416 28.5693 108.532C28.434 106.836 28.4582 105.145 28.556 103.452C28.5705 103.194 28.6227 102.939 28.6264 102.682C28.698 97.6461 28.6877 92.6085 28.8516 87.5757C29.1113 79.575 28.8424 71.5731 29.0172 63.5742C29.0834 60.5541 29.1144 57.5333 29.1793 54.5132C29.1896 54.0289 29.2867 53.5451 29.3529 53.0626C29.5762 51.4245 29.5611 51.4864 28.0316 51.0718C25.2663 50.3223 23.1645 48.7206 21.8074 46.135C20.565 43.7679 21.3419 40.7253 22.8629 38.9178C24.5283 36.9362 26.709 36.1186 29.6891 36.2339ZM61.9462 131.11C61.8443 130.564 61.5845 130.07 61.2276 129.676C59.9391 128.254 58.8078 126.736 57.9435 125.01C57.0543 123.235 55.6304 121.809 54.8645 119.907C53.7313 117.093 52.1709 114.468 51.4176 111.474C50.886 109.361 50.3039 107.253 50.2711 105.085C50.1916 99.8524 50.0551 94.6223 49.9148 89.3911C49.819 85.8023 50.046 82.2122 50.1364 78.624C50.3203 71.3237 50.1801 64.0155 50.188 56.7109C50.1904 54.3603 49.9986 51.9786 50.5892 49.6819C51.184 47.3713 52.2006 46.4433 54.513 47.1285C55.4811 47.4156 57.4397 46.8785 58.2463 46.4117C59.5992 45.6294 59.8238 43.6113 59.4602 42.1632C58.8533 39.7354 57.1162 39.2844 55.3494 39.2474C54.2011 39.2231 53.0546 39.1157 51.9062 39.1017C49.7504 39.075 37.0993 39.7063 32.9284 39.6747C32.0932 39.668 31.2757 39.56 30.4484 39.4428C29.5951 39.3221 28.6379 38.936 27.8501 39.4671C27.0022 40.0389 26.2338 40.7605 25.5377 41.5149C25.0454 42.0484 24.6637 42.7489 24.7504 43.5221C24.8876 44.7421 25.446 45.803 26.4978 46.4427C28.5196 47.673 30.6068 48.6872 33.1226 48.0438C34.2964 47.7434 35.4472 48.6665 35.5194 49.7924C35.5959 50.996 34.8044 51.7656 33.4667 51.7862C33.2076 51.7905 32.9436 51.819 32.6905 51.7801C31.9907 51.6733 31.8237 52.0205 31.9245 52.6238C32.0186 53.1889 32.1867 53.7527 32.1976 54.3196C32.2589 57.5667 32.4319 60.8108 32.5151 64.0543C32.7663 73.8607 32.3342 83.6761 32.892 93.4819C33.0225 95.7786 32.9514 98.0862 32.9964 100.388C33.0571 103.485 33.4649 106.578 33.0995 109.679C32.8598 111.713 32.8731 113.765 32.2953 115.774C31.3698 118.995 30.3361 122.165 28.9517 125.221C27.8349 127.686 26.4341 129.986 25.0084 132.276C24.7529 132.808 24.135 133.058 23.9438 133.64C23.5669 133.62 23.4061 133.925 23.1912 134.145C22.5588 134.791 21.9646 135.479 21.2982 136.088C16.9828 140.026 13.2532 144.467 10.247 149.461C8.68167 152.061 7.25778 154.767 6.55858 157.803C5.92979 160.531 5.22575 163.229 5.2828 166.058C5.31072 167.433 5.47156 168.801 5.54682 170.164C5.71433 173.179 7.01015 175.819 7.94059 178.581C8.45346 180.105 9.62789 181.252 10.4934 182.575C11.4979 184.11 12.8362 185.321 14.3384 186.358C15.1511 186.919 16.0147 187.414 16.72 188.119C19.0598 190.46 21.9597 191.683 25.111 192.501C26.1349 192.767 27.1515 192.779 28.1681 192.887C30.8599 193.176 33.4115 194.118 36.1567 194.275C40.1722 194.506 44.1793 194.876 48.2021 194.675C49.876 194.592 51.5451 194.408 53.1838 193.903C54.5137 193.493 55.7312 192.795 57.0743 192.473C58.3878 192.158 59.5106 191.545 60.4738 190.642C61.3272 189.841 62.2552 189.161 63.2245 188.51C63.8952 188.059 64.6471 187.676 65.1363 186.981C66.579 184.934 68.6432 183.436 70.075 181.374C71.2155 179.731 72.765 178.39 73.5904 176.509C74.2502 175.004 75.0052 173.542 75.6813 172.044C76.9499 169.235 77.8366 166.343 77.555 163.199C77.4482 162.003 77.5016 160.807 77.2418 159.608C76.738 157.285 76.3283 154.97 75.5333 152.695C74.3673 149.359 72.5228 146.413 70.7712 143.42C69.1088 140.579 67.1811 137.889 65.2832 135.195C64.7522 134.441 64.2921 133.537 63.3422 133.145C62.8555 132.481 62.5247 131.711 61.9462 131.11Z" fill="#76FBDD"/>
<path d="M40.623 33.5576C37.8524 33.5674 35.8221 31.2179 35.8215 28.0005C35.8209 25.8962 38.2596 23.69 40.569 23.7052C43.1825 23.7222 45.4258 25.9606 45.4318 28.5577C45.4385 31.2634 43.2402 33.5485 40.623 33.5576Z" fill="#EE4670"/>
<path d="M63.3395 133.149C64.29 133.541 64.7495 134.444 65.2805 135.198C67.1784 137.893 69.1061 140.583 70.7685 143.423C72.5201 146.417 74.3646 149.362 75.5306 152.698C76.3257 154.974 76.736 157.29 77.2391 159.611C77.4995 160.811 77.4455 162.007 77.5523 163.203C77.8333 166.346 76.9466 169.239 75.6787 172.048C75.0025 173.546 74.2475 175.008 73.5878 176.513C72.7629 178.394 71.2128 179.735 70.0723 181.378C68.6412 183.44 66.5764 184.938 65.1337 186.985C64.6445 187.679 63.8931 188.062 63.2218 188.513C62.2525 189.164 61.3245 189.845 60.4711 190.645C59.5079 191.548 58.3857 192.162 57.0717 192.476C55.7291 192.798 54.5116 193.496 53.1812 193.906C51.543 194.411 49.8733 194.595 48.1994 194.679C44.1766 194.88 40.1695 194.509 36.154 194.279C33.4088 194.122 30.8572 193.18 28.1655 192.891C27.1488 192.782 26.1322 192.77 25.1083 192.504C21.957 191.686 19.0565 190.463 16.7173 188.123C16.0121 187.418 15.149 186.922 14.3357 186.362C12.8329 185.324 11.4952 184.114 10.4907 182.579C9.6246 181.256 8.45078 180.108 7.93791 178.585C7.00747 175.823 5.71165 173.183 5.54414 170.168C5.46827 168.805 5.30742 167.437 5.28011 166.062C5.22306 163.232 5.92711 160.535 6.5559 157.806C7.2551 154.771 8.67959 152.065 10.2443 149.465C13.2505 144.47 16.9801 140.029 21.2955 136.092C21.9625 135.483 22.5567 134.795 23.1885 134.148C23.4028 133.929 23.5642 133.623 23.9405 133.643C24.7035 134.086 25.4324 134.606 26.2779 134.88C31.1097 136.441 36.0824 137.231 41.1419 137.461C44.128 137.598 47.1039 137.397 50.0706 136.98C53.0288 136.565 55.9482 135.995 58.8136 135.156C60.4104 134.689 61.926 134.031 63.3395 133.149ZM51.3172 167.891C46.4295 167.971 43.9611 171.227 43.9089 175.258C43.8513 179.708 46.6571 182.401 50.8827 182.515C54.8788 182.622 58.5156 179.259 58.5156 175.33C58.5156 171.334 55.1853 167.739 51.3172 167.891ZM33.2304 186.697C33.1521 186.095 32.7636 185.536 32.0505 185.204C31.0818 184.754 30.0579 184.46 29.0419 184.144C28.1114 183.854 27.0796 183.712 26.3798 182.988C24.806 181.358 22.7679 180.304 21.2973 178.501C19.4085 176.184 17.7042 173.794 16.6742 170.996C15.5866 168.04 15.0585 164.95 14.8819 161.803C14.8528 161.288 14.7666 160.774 14.6889 160.262C14.6495 160.003 14.5675 159.73 14.2568 159.685C13.9151 159.637 13.7391 159.889 13.6043 160.149C13.5127 160.327 13.4368 160.52 13.3943 160.715C12.6854 163.99 12.4888 167.299 13.4265 170.534C14.7302 175.033 17.0002 179.065 20.0519 182.611C21.3592 184.13 22.9986 185.378 24.6816 186.436C26.6384 187.666 29.0291 187.872 31.2342 188.505C32.2386 188.792 33.2437 187.853 33.2304 186.697ZM35.24 167.034C37.9305 167.285 40.2557 164.297 40.1793 161.801C40.0931 158.973 38.132 156.699 35.1829 156.715C32.2477 156.731 30.2078 158.882 30.2181 161.537C30.2315 164.81 32.1877 167.01 35.24 167.034ZM70.3503 167.552C72.2258 167.665 73.0403 166.45 73.169 164.603C73.2655 163.218 71.6061 161.915 69.9831 161.829C68.2588 161.737 67.4613 163.29 67.3332 165.099C67.23 166.551 68.5101 167.539 70.3503 167.552ZM58.8154 155.104C57.0953 155.107 55.91 156.291 55.9063 158.014C55.9021 159.665 56.9618 160.809 58.4974 160.811C60.2842 160.812 61.6274 159.454 61.6183 157.656C61.6104 156.095 60.5197 155.102 58.8154 155.104ZM40.703 150.088C40.7036 151.263 41.4921 152.011 42.7223 152.003C43.9635 151.993 45.0512 150.91 45.019 149.714C44.9935 148.767 43.9702 147.869 42.902 147.856C41.6936 147.841 40.7024 148.846 40.703 150.088ZM58.498 143.972C58.5016 144.894 59.3192 145.758 60.2041 145.775C61.2972 145.795 61.9763 145.077 61.9648 143.91C61.9539 142.791 61.299 142.136 60.2004 142.145C59.1274 142.155 58.4937 142.835 58.498 143.972ZM39.5165 189.788C40.2673 189.776 40.8056 189.453 40.913 188.674C41.015 187.933 40.5823 187.489 39.9213 187.257C39.1717 186.995 38.407 186.978 37.635 187.17C37.2417 187.268 36.9576 187.483 36.8362 187.872C36.696 188.32 36.9236 188.659 37.232 188.935C37.8765 189.513 38.6467 189.787 39.5165 189.788ZM22.0408 152.545C22.0451 153.394 22.3764 153.754 23.1339 153.731C23.8416 153.71 24.4746 153.027 24.4485 152.312C24.4267 151.711 23.8003 151.118 23.2092 151.138C22.5361 151.161 22.0372 151.762 22.0408 152.545ZM48.7523 157.705C48.1715 157.71 47.6264 158.316 47.6167 158.968C47.6058 159.72 48.0167 160.133 48.7675 160.122C49.4205 160.112 50.0457 159.489 50.0202 158.873C49.9959 158.275 49.372 157.701 48.7523 157.705Z" fill="#EE426C"/>
<path d="M25.0031 132.277C26.9416 131.152 28.9822 130.254 31.0876 129.49C34.6109 128.211 38.2338 127.425 41.9695 127.084C46.9367 126.631 51.7431 127.39 56.4693 128.839C58.3642 129.42 60.1377 130.308 61.9427 131.112C62.5211 131.712 62.8519 132.482 63.3363 133.147C61.9227 134.029 60.4066 134.687 58.8115 135.154C55.9461 135.992 53.0268 136.563 50.0685 136.979C47.1018 137.395 44.126 137.596 41.1398 137.46C36.0803 137.229 31.1077 136.438 26.2758 134.878C25.4303 134.605 24.7014 134.085 23.9385 133.642C24.1303 133.059 24.7475 132.809 25.0031 132.277ZM43.6538 129.718C42.5522 129.711 41.558 130.681 41.5525 131.77C41.5471 132.922 42.2554 133.645 43.414 133.67C44.5095 133.694 45.5353 132.683 45.5165 131.596C45.4989 130.561 44.6686 129.724 43.6538 129.718Z" fill="#F39AB0"/>
<path d="M51.3185 167.889C55.1866 167.737 58.5169 171.331 58.5169 175.328C58.5169 179.257 54.8801 182.62 50.8839 182.513C46.6584 182.399 43.8519 179.705 43.9102 175.255C43.9624 171.225 46.4314 167.97 51.3185 167.889Z" fill="#BE264D"/>
<path d="M33.2347 186.693C33.248 187.85 32.2423 188.789 31.239 188.5C29.0346 187.867 26.6439 187.662 24.6865 186.432C23.0034 185.373 21.3641 184.125 20.0567 182.606C17.005 179.061 14.7351 175.029 13.4314 170.53C12.4936 167.294 12.6903 163.986 13.3992 160.71C13.4417 160.515 13.5169 160.322 13.6092 160.145C13.7439 159.884 13.92 159.632 14.2617 159.681C14.5724 159.725 14.6544 159.998 14.6938 160.258C14.7715 160.77 14.8577 161.283 14.8868 161.798C15.0634 164.946 15.5915 168.036 16.6791 170.992C17.7085 173.79 19.4134 176.18 21.3022 178.497C22.7728 180.3 24.8109 181.354 26.3847 182.983C27.0839 183.707 28.1163 183.85 29.0468 184.139C30.0628 184.456 31.0861 184.749 32.0554 185.2C32.7685 185.531 33.1564 186.091 33.2347 186.693Z" fill="#FCF7F9"/>
<path d="M35.2418 167.031C32.1901 167.007 30.2334 164.806 30.22 161.534C30.2091 158.879 32.2496 156.727 35.1848 156.712C38.1339 156.696 40.0949 158.97 40.1811 161.798C40.257 164.294 37.9324 167.282 35.2418 167.031Z" fill="#BE264D"/>
<path d="M70.3532 167.553C68.5136 167.54 67.233 166.552 67.3361 165.1C67.4642 163.291 68.2617 161.738 69.986 161.83C71.609 161.916 73.2678 163.219 73.1719 164.604C73.0426 166.451 72.2287 167.666 70.3532 167.553Z" fill="#BE264D"/>
<path d="M58.813 155.103C60.5167 155.101 61.608 156.094 61.6159 157.655C61.625 159.453 60.2812 160.812 58.495 160.81C56.9594 160.809 55.8997 159.664 55.9039 158.013C55.9082 156.29 57.0929 155.106 58.813 155.103Z" fill="#BE264D"/>
<path d="M40.7026 150.085C40.702 148.843 41.6932 147.838 42.9022 147.853C43.9704 147.866 44.9937 148.764 45.0192 149.711C45.0514 150.906 43.9637 151.99 42.7225 151.999C41.4917 152.008 40.7032 151.26 40.7026 150.085Z" fill="#BE264D"/>
<path d="M58.5017 143.971C58.4975 142.834 59.1311 142.154 60.2042 142.145C61.3028 142.136 61.9577 142.79 61.9686 143.909C61.9801 145.076 61.3009 145.795 60.2078 145.774C59.3223 145.757 58.5048 144.893 58.5017 143.971Z" fill="#BE264D"/>
<path d="M39.5193 189.785C38.6496 189.785 37.88 189.511 37.2336 188.932C36.9253 188.656 36.6983 188.317 36.8379 187.869C36.9593 187.48 37.2433 187.266 37.6366 187.167C38.4092 186.975 39.1734 186.992 39.923 187.255C40.5845 187.486 41.0173 187.93 40.9147 188.671C40.8085 189.449 40.2701 189.773 39.5193 189.785Z" fill="#FCF7F9"/>
<path d="M22.0409 152.543C22.0373 151.76 22.5362 151.159 23.2093 151.136C23.8004 151.116 24.4268 151.71 24.4486 152.31C24.4747 153.025 23.8417 153.708 23.134 153.729C22.3765 153.753 22.0452 153.393 22.0409 152.543Z" fill="#BE264D"/>
<path d="M48.7491 157.706C49.3688 157.701 49.9927 158.276 50.017 158.873C50.0425 159.489 49.4173 160.113 48.7643 160.122C48.0135 160.133 47.6026 159.721 47.6135 158.968C47.6232 158.317 48.1682 157.711 48.7491 157.706Z" fill="#BE264D"/>
<path d="M44.6399 86.8433C45.0878 85.7502 44.9403 84.58 44.9743 83.4572C45.0769 80.0346 44.9513 76.6036 45.0927 73.1835C45.2213 70.0777 44.9646 66.9823 45.0484 63.8821C45.0544 63.6521 45.0217 63.4135 45.072 63.1938C45.1522 62.8406 45.3603 62.528 45.7603 62.5577C46.0935 62.5832 46.3017 62.8503 46.3794 63.1835C46.4049 63.294 46.4055 63.4129 46.4019 63.527C46.278 67.0091 46.6094 70.4771 46.783 73.9476C46.922 76.7232 47.1787 79.4987 47.3626 82.2706C47.589 85.6761 47.9489 89.0872 47.8106 92.5134C47.748 94.0677 48.2445 95.5948 48.0958 97.1473C47.9538 98.6277 47.5223 99.0981 46.4613 99.1296C45.6778 99.1527 45.2141 98.7545 45.0295 98.0353C44.8371 97.2851 44.734 96.5192 44.723 95.7392C44.6854 93.0068 44.8074 90.2725 44.6569 87.5425C44.6508 87.3113 44.6454 87.0776 44.6399 86.8433Z" fill="#76FBDD"/>
<path d="M40.3999 121.27C38.0977 121.274 36.0924 119.511 36.1264 117.442C36.1792 114.269 37.3828 112.439 40.4927 112.28C42.8707 112.158 44.7917 114.229 44.8123 116.698C44.833 119.203 42.8416 121.266 40.3999 121.27Z" fill="#EE426C"/>
<path d="M44.6363 86.8462C44.6418 87.0804 44.6472 87.3141 44.6527 87.5466C44.3067 88.8667 43.752 90.0199 42.3633 90.5631C41.2125 91.0128 40.2099 90.7349 39.3304 89.9604C38.3702 89.1155 37.9253 86.7976 38.4485 85.628C38.9899 84.4196 40.046 83.7301 41.2921 83.7714C42.6419 83.8163 43.857 84.6921 44.3189 85.9558C44.4269 86.2514 44.5307 86.5494 44.6363 86.8462Z" fill="#EE4670"/>
<path d="M48.1279 108.786C48.1285 110.041 47.1112 111.165 45.9914 111.145C44.8431 111.125 43.886 110.126 43.8993 108.961C43.9133 107.731 44.8868 106.763 46.0861 106.785C47.2417 106.806 48.1279 107.674 48.1279 108.786Z" fill="#EE4670"/>
<path d="M48.9529 46.089C47.7803 46.1096 46.9621 45.3436 46.9342 44.1989C46.9051 42.9881 47.6316 42.2033 48.7987 42.1845C49.9628 42.1663 50.8477 42.9656 50.8629 44.049C50.8781 45.1597 50.0253 46.0701 48.9529 46.089Z" fill="#EE4670"/>
<path d="M31.4403 8.20651C28.9761 8.25021 27.2566 6.63939 27.1977 4.23408C27.1358 1.68917 28.6629 0.0395043 31.1162 0.000660004C33.5633 -0.0381843 35.423 1.64183 35.454 3.91908C35.4861 6.25337 33.6944 8.16706 31.4403 8.20651Z" fill="#EE4670"/>
<path d="M42.1235 51.7754C41.2088 51.5587 40.0914 51.3311 38.999 51.0167C38.605 50.9032 38.4321 50.5191 38.44 50.0547C38.4509 49.4168 38.9334 49.2032 39.3643 49.0727C40.4829 48.7328 41.6373 48.887 42.7638 49.0733C43.412 49.1807 44.0293 50.0705 43.9358 50.581C43.7932 51.356 43.2026 51.7961 42.1235 51.7754Z" fill="#76FBDD"/>
<path d="M39.8563 65.3079C39.8429 66.6554 39.2135 67.3788 38.0791 67.3497C37.0109 67.3224 36.146 66.4417 36.1776 65.4135C36.2122 64.2925 37.176 63.2352 38.135 63.2668C39.202 63.3014 39.8684 64.091 39.8563 65.3079Z" fill="#EE4670"/>
<path d="M57.4525 15.5383C57.4391 16.8857 56.8097 17.6092 55.6753 17.58C54.6077 17.5527 53.7422 16.6721 53.7738 15.6439C53.8084 14.5229 54.7722 13.4656 55.7312 13.4971C56.7982 13.5317 57.4646 14.3214 57.4525 15.5383Z" fill="#EE4670"/>
<path d="M47.429 58.2766C47.4223 58.7542 47.5874 59.2659 47.3228 59.7071C47.0066 60.2346 46.5374 60.5204 45.8825 60.4142C45.1682 60.2983 44.8161 59.7478 44.7652 59.1694C44.6723 58.1285 44.5612 57.0639 45.0019 56.0357C45.2107 55.5484 45.5178 55.2716 46.0112 55.2801C46.5289 55.2892 46.9483 55.5295 47.094 56.0825C47.2834 56.8011 47.5492 57.5076 47.429 58.2766Z" fill="#76FBDD"/>
<path d="M38.8177 104.239C38.8019 105.034 38.2126 105.676 37.514 105.659C36.8124 105.642 36.1423 104.931 36.1781 104.241C36.2164 103.501 36.8591 102.886 37.5868 102.893C38.3322 102.9 38.8329 103.448 38.8177 104.239Z" fill="#EE4670"/>
<path d="M43.6563 129.719C44.6711 129.725 45.5014 130.562 45.519 131.597C45.5372 132.684 44.5121 133.695 43.4166 133.671C42.2573 133.646 41.549 132.923 41.5551 131.771C41.5606 130.682 42.5547 129.711 43.6563 129.719Z" fill="#EE4670"/>
<path d="M52.172 40.9546C53.7075 40.1868 57.0275 40.9546 57.6345 42.1684C58.2414 43.3823 56.4206 45.8101 54.5998 45.8101C52.7789 45.8101 53.9928 44.5962 53.9928 43.3823C53.9928 42.1684 50.9581 41.5615 52.172 40.9546Z" fill="#FCFDFD"/>
</svg>
